<svg width="53" height="52" viewBox="0 0 53 52" fill="none" xmlns="http://www.w3.org/2000/svg">
<path d="M47 23.5C47 10.5213 36.4787 0 23.5 0C10.5213 0 0 10.5213 0 23.5C0 36.4787 10.5213 47 23.5 47C36.4787 47 47 36.4787 47 23.5Z" fill="#FBE9EA"/>
<path fill-rule="evenodd" clip-rule="evenodd" d="M28.4958 18.0374C20.3972 18.3893 14.6599 19.5103 12.8581 21.0928C12.4033 21.4923 12.2402 21.7773 12.2402 22.1732C12.2402 22.6672 12.5185 23.043 13.1141 23.3533C13.8286 23.7255 15.0341 24.1328 16.46 24.4836C17.1119 24.6441 17.7936 24.8598 17.9748 24.9629C18.3862 25.1974 18.7788 25.6369 18.9982 26.1089C19.1664 26.4705 19.1669 26.4964 19.1628 34.7799C19.1605 39.3494 19.1785 43.0879 19.2028 43.0875C19.2271 43.0871 21.0711 39.9407 23.3006 36.0955C25.5611 32.1969 27.4412 29.0397 27.551 28.9581C28.0059 28.6201 28.6863 28.6541 29.0616 29.0339C29.1849 29.1588 30.5728 31.4845 32.1456 34.2021C33.7184 36.9198 35.0365 39.1779 35.075 39.2203C35.1176 39.2672 36.4194 38.0317 38.4066 36.058C41.2288 33.2552 41.708 32.8115 41.9624 32.7655C42.5779 32.6542 42.696 32.7324 44.2874 34.304L45.7851 35.7832L45.8088 31.1275C45.8318 26.5874 45.8366 26.4626 46.0011 26.1089C46.2205 25.6369 46.6131 25.1974 47.0245 24.9629C47.2057 24.8598 47.8874 24.6441 48.5393 24.4836C50.8708 23.91 52.2798 23.3139 52.5859 22.7718C53.2005 21.6833 52.1577 20.6631 49.566 19.8177C46.8859 18.9434 42.4423 18.3208 37.064 18.0661C35.5489 17.9943 29.9211 17.9754 28.4958 18.0374ZM37.6618 22.5692C39.2674 22.9854 40.3433 24.3789 40.3463 26.0461C40.3486 27.4142 39.5726 28.6098 38.2707 29.2439C37.7674 29.4891 37.7032 29.5 36.7837 29.5C35.866 29.5 35.7995 29.4887 35.3023 29.2462C33.8775 28.5513 33.143 27.3053 33.2406 25.7486C33.2766 25.1732 33.3297 24.9691 33.5675 24.4915C34.344 22.9318 36.0218 22.1441 37.6618 22.5692ZM36.3981 24.8727C35.9873 25.0198 35.8138 25.19 35.6561 25.6013C35.485 26.0467 35.5553 26.4296 35.8743 26.7911C36.3279 27.3054 37.0649 27.3533 37.5813 26.9021C38.5683 26.0395 37.6307 24.4315 36.3981 24.8727ZM12 37.6331C12 48.0628 12.0164 49.8221 12.1154 50.0126C12.4319 50.6216 13.9539 51.3251 15.9929 51.8046L16.8046 51.9956V39.498C16.8046 27.6639 16.7972 26.9983 16.6645 26.9603C16.5874 26.9383 16.128 26.8235 15.6435 26.7052C14.6623 26.4657 12.8727 25.8746 12.3962 25.6327C12.2258 25.5462 12.067 25.4754 12.0432 25.4754C12.0195 25.4754 12 30.9463 12 37.6331ZM52.3987 25.7123C51.5867 26.0894 50.1078 26.5457 48.4149 26.9412L48.1947 26.9927V39.4963V52L48.6952 51.8864C50.2925 51.5241 51.8433 50.937 52.4796 50.4539C53.041 50.0279 52.9993 51.0568 52.9993 37.6331C52.9993 30.9463 52.9723 25.4785 52.9393 25.4823C52.9061 25.486 52.663 25.5896 52.3987 25.7123ZM28.0013 32.6965C27.8498 32.9548 25.7911 36.5034 23.4264 40.5823C19.4163 47.4993 19.1268 48.0237 19.1268 48.3725C19.1268 48.5782 19.1579 48.7465 19.1959 48.7465C19.2339 48.7465 19.7015 48.6581 20.2351 48.55C22.2317 48.1452 24.5419 47.8194 27.0544 47.5882C28.9378 47.4149 33.639 47.3462 35.5736 47.4638C36.4055 47.5144 37.0975 47.5444 37.1112 47.5307C37.1252 47.5169 35.1711 44.1178 32.7691 39.9771C30.3671 35.8366 28.3736 32.3989 28.3392 32.3379C28.2944 32.2587 28.1978 32.3611 28.0013 32.6965ZM39.289 38.5256L36.3498 41.4544L38.2038 44.6456L40.0579 47.8368L41.5839 48.058C42.4231 48.1799 43.7167 48.3969 44.4583 48.5406C45.6106 48.7638 45.8135 48.7847 45.8523 48.684C45.8773 48.6193 45.8764 46.4486 45.8504 43.8603L45.8031 39.1543L44.0158 37.3755L42.2284 35.5966L39.289 38.5256Z" fill="#D92029"/>
</svg>
