<svg width="50" height="47" viewBox="0 0 50 47" fill="none" xmlns="http://www.w3.org/2000/svg">
<path d="M47 23.5C47 10.5213 36.4787 0 23.5 0C10.5213 0 0 10.5213 0 23.5C0 36.4787 10.5213 47 23.5 47C36.4787 47 47 36.4787 47 23.5Z" fill="#FBE9EA"/>
<path fill-rule="evenodd" clip-rule="evenodd" d="M30.8656 4.27521C30.6459 4.49561 30.5884 4.97271 30.5884 6.57431V8.59551H28.5941C27.2782 8.59551 26.5278 8.66771 26.388 8.80781C26.2648 8.93121 26.1762 9.52301 26.1762 10.2226V11.4252H31.3826H36.5889V10.2226C36.5889 9.52301 36.5003 8.93121 36.3771 8.80781C36.237 8.66731 35.4762 8.59541 34.1269 8.59481L32.0885 8.59401L32.0329 6.43171C31.9786 4.31461 31.8923 4.00711 31.351 4.00001C31.2366 3.99861 31.0183 4.12241 30.8656 4.27521ZM24.7056 12.7811C24.6408 12.8459 24.5879 13.7611 24.5879 14.8149V16.7308H26.3527H28.1176V14.697V12.6632H26.4704C25.5643 12.6632 24.7702 12.7162 24.7056 12.7811ZM29.353 14.697V16.7308H31.3826H33.4121V14.697V12.6632H31.3826H29.353V14.697ZM34.6476 14.697V16.7308H36.4124H38.1773V14.9768C38.1773 14.012 38.1291 13.0968 38.0701 12.9429C37.983 12.7153 37.6542 12.6632 36.3053 12.6632H34.6476V14.697ZM24.4996 17.9688L22.9112 18.0572L22.8625 20.7542L22.8138 23.4512H24.7597H26.7057V22.3901V21.329H28.3823H30.0589V23.0091V24.6892H29.5295H29V26.0156V27.342H29.5295H30.0589V29.0221V30.7022H29.5295H29V31.9402V33.1781H29.5295H30.0589V34.9467V36.7152H29.5295H29V37.9532V39.1912H29.5295H30.0589V40.9224V42.6538L29.5736 42.6467C29.1055 42.64 29.0863 42.6762 29.0353 43.6567L28.9824 44.6736H28.3735H27.7646V34.8936C27.7646 27.5227 27.7124 25.0613 27.5528 24.9014C27.2516 24.5995 18.5709 24.5995 18.2697 24.9014C18.1101 25.0613 18.0579 27.5227 18.0579 34.8936V44.6736H16.0283H13.9987V42.5061V40.3386L14.5334 40.1014C14.8275 39.9709 15.2643 39.5749 15.5041 39.2214C15.9229 38.6036 15.94 38.4673 15.9393 35.7457C15.9388 33.231 15.8993 32.8481 15.5879 32.3365C15.0973 31.53 14.2486 31.0573 13.2899 31.0566C12.1945 31.0557 11.3586 31.5484 10.8601 32.4893C10.4721 33.2215 10.4513 33.4226 10.5027 35.9514C10.5636 38.9515 10.6553 39.214 11.9387 40.0609L12.5868 40.4884V42.5756V44.6626L10.4437 44.7123C8.6284 44.7544 8.2708 44.8094 8.1062 45.0715C7.9645 45.297 7.9646 45.465 8.1065 45.6905C8.2903 45.9823 9.4789 46 29 46C48.5211 46 49.7097 45.9823 49.8935 45.6905C50.0354 45.465 50.0355 45.297 49.8938 45.0715C49.7292 44.8094 49.3716 44.7544 47.5563 44.7123L45.4132 44.6626V42.5756V40.4884L46.0612 40.0609C47.3427 39.2154 47.4361 38.9494 47.5001 35.9652C47.5478 33.7409 47.507 33.1826 47.2562 32.6253C46.3735 30.6633 43.5329 30.494 42.412 32.3365C42.1007 32.8481 42.0612 33.231 42.0607 35.7457C42.06 38.4673 42.0771 38.6036 42.4959 39.2214C42.7357 39.5749 43.1725 39.9709 43.4666 40.1014L44.0013 40.3386V42.5061V44.6736H41.9717H39.9421V31.42C39.9421 22.4458 39.883 18.1299 39.7588 18.0529C39.5364 17.9152 26.7304 17.8446 24.4996 17.9688ZM36.0594 23.0091V24.6892H34.3828H32.7062V23.0091V21.329H34.3828H36.0594V23.0091ZM36.0594 29.0221V30.7022H34.3828H32.7062V29.0221V27.342H34.3828H36.0594V29.0221ZM24.9075 30.2922C24.9834 30.8267 24.5499 31.0016 23.0877 31.0264C21.3327 31.0561 20.8816 30.9386 20.8816 30.4523C20.8816 30.2332 20.9371 29.9981 21.0048 29.9302C21.0728 29.8623 21.9662 29.8291 22.9903 29.8565C24.7522 29.9037 24.8556 29.9272 24.9075 30.2922ZM35.6623 33.2896C36.0384 33.3905 36.0594 33.4843 36.0594 35.0558V36.7152H34.3828H32.7062V34.9467V33.1781L33.9857 33.1806C34.6896 33.1819 35.4439 33.231 35.6623 33.2896ZM24.8526 35.3888V35.9194H22.9137C21.1834 35.9194 20.9681 35.8849 20.9132 35.5996C20.7646 34.8262 20.9482 34.7551 22.9522 34.808L24.8526 34.8582V35.3888ZM36.0594 40.9155V42.6398H34.3828H32.7062V40.9155V39.1912H34.3828H36.0594V40.9155ZM24.7356 39.877C24.8655 39.9596 24.9449 40.2169 24.9121 40.4491C24.8535 40.8649 24.8231 40.8713 22.9112 40.8713C20.9994 40.8713 20.969 40.8649 20.9104 40.4491C20.8243 39.8388 21.1337 39.7272 22.9112 39.7272C23.7848 39.7272 24.6059 39.7946 24.7356 39.877Z" fill="#D92029"/>
</svg>
