<svg width="48" height="48" viewBox="0 0 48 48" fill="none" xmlns="http://www.w3.org/2000/svg">
<path d="M47 23.5C47 10.5213 36.4787 0 23.5 0C10.5213 0 0 10.5213 0 23.5C0 36.4787 10.5213 47 23.5 47C36.4787 47 47 36.4787 47 23.5Z" fill="#EBEBEB"/>
<path fill-rule="evenodd" clip-rule="evenodd" d="M43.5383 10.0303C42.3231 10.1856 41.2054 11.1369 40.8321 12.334C40.6192 13.0164 40.6239 13.6363 40.8479 14.4165C40.8893 14.5609 40.5255 14.9155 38.3786 16.8234C36.9938 18.0541 35.7993 19.1134 35.7242 19.1773C35.603 19.2807 35.5411 19.273 35.1706 19.1088C34.6272 18.8679 33.5382 18.8437 32.9222 19.0588C31.9686 19.3918 31.1303 20.2726 30.8321 21.2552L30.6729 21.7797L28.4971 22.2357L26.3212 22.6917L25.8873 22.2118C24.6253 20.8163 22.5291 20.7451 21.1495 22.0508C20.3797 22.7794 19.9603 23.9625 20.1332 24.9175L20.2125 25.3553L18.276 26.7259C17.211 27.4797 16.2444 28.1588 16.128 28.235C15.9213 28.3703 15.9055 28.3678 15.41 28.1199C14.9844 27.9071 14.7921 27.8612 14.2094 27.8333C13.4191 27.7954 12.9609 27.8925 12.3677 28.2237C11.2909 28.8249 10.6583 29.9066 10.6583 31.1466C10.6583 32.0889 10.9925 32.8693 11.6769 33.5247C12.417 34.2335 13.1123 34.496 14.1407 34.4552C14.7505 34.4309 14.904 34.3925 15.4289 34.1328C16.1575 33.7723 16.674 33.2456 17.0239 32.5064C17.2599 32.0079 17.2759 31.9184 17.2776 31.0868L17.2794 30.1993L19.4 28.7023L21.5207 27.2054L21.8709 27.4012C22.8113 27.9272 23.9533 27.9433 24.9428 27.4444C25.7345 27.0453 26.5335 26.0173 26.686 25.2013L26.7391 24.9176L28.9455 24.4566L31.152 23.9955L31.3289 24.2259C31.8548 24.9104 32.7906 25.4704 33.5716 25.5681C34.1296 25.6379 34.9652 25.4878 35.495 25.2228C36.1019 24.9192 36.7387 24.2629 37.0364 23.6343C37.2627 23.1562 37.2842 23.0422 37.2842 22.3194C37.2842 21.8841 37.2543 21.398 37.2176 21.2392L37.151 20.9503L39.7674 18.6213L42.3837 16.2923L42.9183 16.4746C44.1661 16.9001 45.4413 16.6082 46.359 15.687C48.6192 13.4182 46.7267 9.62291 43.5383 10.0303ZM40.8091 19.0946C40.66 19.1707 40.4642 19.3335 40.3742 19.4564L40.2104 19.6798L40.1904 33.3849C40.1715 46.3134 40.1782 47.1053 40.309 47.3613C40.3852 47.5105 40.5481 47.7064 40.6709 47.7965C40.8881 47.9559 40.9823 47.9604 44.0855 47.9604C47.1888 47.9604 47.283 47.9559 47.5002 47.7965C47.623 47.7064 47.7857 47.5105 47.8617 47.3613C47.9918 47.106 48 46.2809 48 33.478C48 20.6766 47.9918 19.8497 47.8617 19.5907C47.7857 19.4392 47.6025 19.2344 47.4547 19.1356C47.1869 18.9566 47.1755 18.956 44.1331 18.9562C41.383 18.9562 41.0534 18.9699 40.8091 19.0946ZM30.998 27.8758C30.8898 27.8971 30.7025 27.985 30.5817 28.0711C30.0996 28.4147 30.1271 27.8164 30.1271 37.9789V47.2756L30.3342 47.5219C30.7405 48.0051 30.7016 48 34.0073 48C36.9242 48 37.0354 47.9945 37.3202 47.8343C37.4822 47.7431 37.6828 47.5561 37.7659 47.4188C37.9123 47.1768 37.9169 46.8841 37.9169 37.9494C37.9169 27.6839 37.9583 28.4531 37.3843 28.0434L37.1261 27.8591L34.1604 27.848C32.5293 27.8418 31.1062 27.8543 30.998 27.8758ZM20.5611 30.3219C20.0529 30.7498 20.0833 30.1943 20.0835 39.0336C20.0835 46.5472 20.0929 47.1082 20.2219 47.3613C20.2979 47.5105 20.4605 47.7064 20.5834 47.7965C20.8005 47.9559 20.8947 47.9604 23.998 47.9604C27.1013 47.9604 27.1955 47.9559 27.4126 47.7965C27.5355 47.7064 27.6981 47.5105 27.7741 47.3613C27.9031 47.1082 27.9125 46.5472 27.9125 39.0336C27.9127 30.1943 27.9431 30.7498 27.4349 30.3219L27.1888 30.1146H23.998H20.8072L20.5611 30.3219ZM10.6134 36.891C10.4723 36.9614 10.2766 37.1481 10.1784 37.3061L10 37.5932V42.3811C10 46.9539 10.0068 47.1803 10.1511 47.4188C10.2341 47.5561 10.4347 47.7431 10.5968 47.8343C10.8816 47.9945 10.9928 48 13.9096 48C17.2153 48 17.1765 48.0051 17.5827 47.5219L17.7899 47.2756V42.4071C17.7899 37.0828 17.8101 37.3218 17.3285 36.9601C17.127 36.8089 16.9784 36.801 13.9938 36.7824C11.2495 36.7654 10.8388 36.7786 10.6134 36.891Z" fill="#333333"/>
</svg>
