<svg width="53" height="49" viewBox="0 0 53 49" fill="none" xmlns="http://www.w3.org/2000/svg">
<path d="M47 23.5C47 10.5213 36.4787 0 23.5 0C10.5213 0 0 10.5213 0 23.5C0 36.4787 10.5213 47 23.5 47C36.4787 47 47 36.4787 47 23.5Z" fill="#FBE9EA"/>
<path fill-rule="evenodd" clip-rule="evenodd" d="M26.4733 12.0365C23.4132 12.2663 20.2557 13.0644 18.4558 14.0631C16.4157 15.195 15.6154 16.4707 16.1815 17.688C16.3935 18.1437 17.1365 18.91 17.7691 19.3251C19.7055 20.5958 22.854 21.4793 26.4242 21.7539C27.9588 21.8719 30.9582 21.7983 32.3707 21.6079C36.2215 21.0891 39.1337 19.9703 40.5341 18.4717C41.0864 17.8808 41.2805 17.4729 41.2805 16.9031C41.2805 16.3333 41.0864 15.9253 40.5341 15.3344C38.9742 13.6653 35.3594 12.4152 31.0741 12.0629C30.2338 11.9937 27.2684 11.9768 26.4733 12.0365ZM16.0007 23.8632L16.0014 26.338L16.1787 26.7191C16.8714 28.2085 19.4401 29.573 22.9453 30.3138C24.5402 30.6508 25.8706 30.7901 27.9212 30.8346C30.2974 30.8861 31.7872 30.7818 33.8782 30.4172L34.3318 30.3382L34.3817 30.001C34.4465 29.563 34.6758 29.0319 34.885 28.8353C34.9761 28.7495 35.354 28.5666 35.7247 28.4286C36.5444 28.1236 36.9462 27.8939 37.3941 27.4746C37.8722 27.0269 38.1515 26.5584 38.289 25.973C38.3539 25.6965 38.4359 25.3531 38.4712 25.2097C38.5445 24.9117 39.0313 24.3237 39.335 24.1666C39.4817 24.0907 39.7866 24.0606 40.4101 24.0606H41.2805V22.7245V21.3884L40.7702 21.7189C38.8277 22.9767 35.7836 23.9231 32.4253 24.3133C30.1582 24.5768 27.133 24.5769 24.8482 24.3135C21.6075 23.9399 18.3996 22.9423 16.5145 21.7216L16 21.3884L16.0007 23.8632ZM40.8165 27.1513C40.5124 28.1305 39.7962 29.1633 38.9508 29.842C38.7027 30.0412 38.1746 30.3657 37.7773 30.5631L37.055 30.9222L37.1039 31.8835C37.3652 37.0267 39.5571 41.2556 43.2307 43.7038C44.0663 44.2607 44.7043 44.5932 44.9369 44.5932C45.4765 44.5932 47.7877 42.8365 48.9212 41.5647C51.3477 38.8423 52.7257 35.452 52.955 31.6409L53 30.8928L52.5183 30.6847C51.5697 30.275 50.7477 29.6359 50.1195 28.8199C49.7687 28.364 49.2522 27.348 49.1826 26.9764L49.1374 26.7356H45.0416H40.9457L40.8165 27.1513ZM16 32.907V35.3883L16.2191 35.8271C17.0647 37.5209 20.3554 39.0296 24.5231 39.6345C26.5846 39.9336 30.2177 39.9733 32.1795 39.7183C33.7035 39.52 35.7357 39.1045 35.8836 38.9609C35.9146 38.9307 35.8258 38.6065 35.6863 38.2405C35.1786 36.9088 34.7843 35.3212 34.5575 33.6943C34.4896 33.2078 34.4511 33.0978 34.3486 33.0978C34.2795 33.0978 33.8039 33.1609 33.2916 33.238C32.7792 33.315 31.9213 33.4169 31.385 33.4645C30.1511 33.5739 27.0781 33.5737 25.8955 33.4642C21.9702 33.1007 18.6576 32.1416 16.4876 30.7405L16 30.4257V32.907ZM50.0804 32.8593C50.132 32.885 44.4504 38.6968 44.2461 38.8272C44.1372 38.8967 43.8977 38.9742 43.7138 38.9995C43.4378 39.0373 43.313 39.0118 42.9981 38.8529C42.6789 38.6918 42.4166 38.4247 41.3888 37.214C40.7135 36.4184 40.1182 35.7065 40.066 35.6319C39.9794 35.5082 40.0571 35.4223 40.9466 34.6585C41.4832 34.1978 41.9524 33.8208 41.9893 33.8208C42.0261 33.8208 42.409 34.2332 42.84 34.7373L43.6237 35.6537L45.8974 33.3248L48.1711 30.9959L49.1113 31.9203C49.6284 32.4288 50.0645 32.8513 50.0804 32.8593ZM16 41.9804V44.4979L16.2195 44.9375C17.1919 46.8854 21.3507 48.5345 26.2852 48.929C27.4667 49.0234 29.9326 49.0237 31.0599 48.9295C35.3124 48.5743 38.8719 47.3646 40.4716 45.7314L40.8545 45.3404L40.1059 44.6807C39.2749 43.9483 38.3577 42.9339 37.7166 42.0379C37.4845 41.7136 37.2857 41.439 37.2747 41.4277C37.2637 41.4164 36.9085 41.5044 36.4854 41.6234C33.0513 42.5886 28.5316 42.8621 24.5231 42.3474C21.2441 41.9263 18.4123 41.0208 16.4876 39.7778L16 39.463V41.9804Z" fill="#D92029"/>
</svg>
