<svg width="55" height="52" viewBox="0 0 55 52" fill="none" xmlns="http://www.w3.org/2000/svg">
<path d="M47 23.5C47 10.5213 36.4787 0 23.5 0C10.5213 0 0 10.5213 0 23.5C0 36.4787 10.5213 47 23.5 47C36.4787 47 47 36.4787 47 23.5Z" fill="#FBE9EA"/>
<path fill-rule="evenodd" clip-rule="evenodd" d="M26.9557 10.1683C24.3232 10.7211 22.1055 12.4481 20.9068 14.8787C20.2398 16.2314 20.0294 17.1269 20.0199 18.6539C20.0118 19.9456 20.0802 20.4234 20.4255 21.4852C20.8212 22.7026 21.4757 23.7944 22.3833 24.7517C24.62 27.1106 27.8305 28.032 31.0047 27.2261C31.8275 27.0172 33.2973 26.2997 34.0055 25.7613C35.4244 24.6826 36.5356 23.1326 37.0711 21.4852C37.4164 20.4234 37.4848 19.9456 37.4767 18.6539C37.4672 17.1269 37.2568 16.2314 36.5898 14.8787C35.3795 12.4245 33.1579 10.7073 30.4892 10.1634C29.4118 9.94378 28.0157 9.94568 26.9557 10.1683ZM19.9189 31.0945C19.3068 31.1969 18.1958 31.5621 17.6302 31.8467C15.5251 32.9063 13.9889 34.7626 13.2667 37.1193L13.0404 37.8579L13.0128 42.2644C12.982 47.1686 12.9595 46.9501 13.5416 47.3942L13.843 47.6241L21.9182 47.6458C26.3597 47.6578 29.9793 47.6393 29.9618 47.6048C29.4069 46.5059 29.2406 45.9047 29.2406 44.9979C29.2406 43.8117 29.655 42.6985 30.4003 41.8829C30.9023 41.3336 35.1861 37.4692 35.6962 37.1055C36.2057 36.7423 36.9638 36.4561 37.7197 36.3416C38.7093 36.1917 39.67 36.3661 40.621 36.8683L41.1294 37.1368L41.4232 36.6608C41.8141 36.0272 42.5184 35.4121 43.2716 35.0462C43.61 34.8817 43.9024 34.7361 43.9212 34.7227C43.9965 34.6687 43.7152 34.2692 43.2193 33.7258C42.3248 32.7454 41.0619 31.8987 39.8541 31.4694C38.5249 30.9969 38.6995 31.0044 29.129 31.0148C24.2939 31.0201 20.1494 31.0559 19.9189 31.0945ZM44.3018 38.1671C44.1238 38.268 43.9107 38.4661 43.8282 38.6073C43.6754 38.8689 40.9729 50.4013 40.9754 50.781C40.9772 51.0546 41.287 51.5884 41.5629 51.7929C41.8749 52.0243 42.515 52.07 42.8981 51.8882C43.4799 51.6121 43.4845 51.5972 44.9462 45.2441C46.4395 38.7547 46.3991 39.0362 45.9184 38.4648C45.5 37.9675 44.8617 37.8499 44.3018 38.1671ZM37.8151 39.7482C37.7699 39.7614 37.6305 39.7949 37.5052 39.8225C37.2576 39.8772 32.5065 44.0987 32.4018 44.3571C32.1404 45.0015 32.2114 45.4851 32.6322 45.9275C33.1557 46.478 37.1273 50.0086 37.3851 50.1528C37.9398 50.463 38.8128 50.1623 39.128 49.5526C39.286 49.2469 39.2854 48.7061 39.1264 48.3712C39.0562 48.2232 38.2486 47.4326 37.276 46.5599C35.6357 45.0879 35.5574 45.0042 35.698 44.8735C35.7793 44.7979 36.5573 44.0993 37.4269 43.321C38.2966 42.5428 39.0627 41.8003 39.1295 41.671C39.4123 41.1241 39.1997 40.3231 38.6843 39.9939C38.4023 39.8136 37.9895 39.697 37.8151 39.7482ZM48.8921 39.8279C48.243 40.0571 47.8661 40.7482 48.0404 41.3895C48.1543 41.8084 48.1181 41.7698 50.0204 43.4958C50.9117 44.3045 51.6409 44.9918 51.6409 45.0231C51.6409 45.0544 50.9165 45.7263 50.031 46.5162C49.1456 47.3061 48.3519 48.0403 48.2672 48.1478C47.8864 48.6308 47.9152 49.3749 48.3317 49.8182C48.7708 50.2855 49.3057 50.4008 49.8505 50.1456C50.2371 49.9645 54.7213 45.9242 54.8832 45.6111C55.0473 45.2937 55.0371 44.7263 54.8615 44.4019C54.731 44.1609 50.2242 40.029 49.9228 39.8741C49.6527 39.7352 49.2107 39.7154 48.8921 39.8279Z" fill="#D92029"/>
</svg>
