<svg width="49" height="47" viewBox="0 0 49 47" fill="none" xmlns="http://www.w3.org/2000/svg">
<path d="M47 23.5C47 10.5213 36.4787 0 23.5 0C10.5213 0 0 10.5213 0 23.5C0 36.4787 10.5213 47 23.5 47C36.4787 47 47 36.4787 47 23.5Z" fill="#EBEBEB"/>
<path fill-rule="evenodd" clip-rule="evenodd" d="M29.1094 15.1544V20.3088H31.4844H33.8594V33.1544V46H41.4297H49V29.5013V13.0026L39.2588 11.5386C33.9012 10.7334 29.4257 10.0578 29.3135 10.0373L29.1094 10V15.1544ZM39.8711 29.6282V38.9475H38.6836H37.4961V29.6762C37.4961 24.5769 37.5184 20.3832 37.5456 20.3568C37.5728 20.3304 38.1071 20.3088 38.7331 20.3088H39.8711V29.6282ZM45.2891 31.2114V42.1139H44.1387H42.9883V31.2114V20.3088H44.1387H45.2891V31.2114ZM19.4362 22.5877C19.409 22.6141 19.3867 27.8926 19.3867 34.3179V46H25.4727H31.5586V34.2699V22.5397H25.5222C22.2021 22.5397 19.4634 22.5613 19.4362 22.5877ZM27.2539 28.4408V29.5922H25.4727H23.6914V28.4408V27.2894H25.4727H27.2539V28.4408ZM11 37.2204V46H14.043H17.0859V43.4453V40.8906H15.8984H14.7109V39.7769V38.6633L15.8799 38.6435L17.0488 38.6237V37.0765V35.5292L15.8799 35.5094L14.7109 35.4896V34.376V33.2624H15.8984H17.0859V30.8516V28.4408H14.043H11V37.2204ZM27.2539 33.6942V34.8456H25.4727H23.6914V33.6942V32.5427H25.4727H27.2539V33.6942ZM27.2539 38.9835V40.099H25.4727H23.6914V38.9835V37.8681H25.4727H27.2539V38.9835Z" fill="#333333"/>
</svg>
