<svg width="47" height="53" viewBox="0 0 47 53" fill="none" xmlns="http://www.w3.org/2000/svg">
<path d="M45.2909 23.03C45.2909 10.3109 35.1522 0 22.6455 0C10.1387 0 0 10.3109 0 23.03C0 35.7491 10.1387 46.06 22.6455 46.06C35.1522 46.06 45.2909 35.7491 45.2909 23.03Z" fill="#EBEBEB"/>
<path fill-rule="evenodd" clip-rule="evenodd" d="M26.3637 15.0756C26.2615 15.1164 26.0993 15.2229 26.0033 15.3123C25.6336 15.6569 25.6199 15.7466 25.6199 17.8101V19.7444H24.5385C23.2257 19.7444 22.289 19.8401 21.1571 20.0899C15.481 21.3426 10.9579 25.6499 9.47928 31.2103C9.08738 32.6844 9.00445 33.3666 9.00021 35.1518C8.99716 36.414 9.02721 36.9626 9.13223 37.565C9.58609 40.1685 10.4767 42.2547 11.9887 44.2561C12.6251 45.0987 13.7752 46.3317 14.127 46.5488C14.4702 46.7605 15.0427 46.766 15.3725 46.5607C15.5063 46.4774 16.4077 45.6138 17.3756 44.6417C18.8263 43.1845 19.1513 42.82 19.2261 42.5656C19.3885 42.014 19.2868 41.7818 18.5401 40.9994C17.0628 39.4512 16.3487 37.8761 16.1812 35.796C15.914 32.4776 17.6665 29.3518 20.6549 27.8167C21.8094 27.2236 22.8834 26.9677 24.5134 26.8973L25.6199 26.8495V28.7953C25.6199 30.9243 25.631 30.9879 26.0657 31.3531C26.3321 31.5769 26.6972 31.6617 27.0889 31.5909C27.3341 31.5465 27.8244 31.0858 31.1476 27.7771C33.2265 25.7074 34.9753 23.9237 35.0339 23.8134C35.1706 23.556 35.1704 23.0606 35.0336 22.8036C34.8682 22.493 27.4692 15.1576 27.2328 15.0699C26.9758 14.9746 26.6116 14.977 26.3637 15.0756ZM40.9691 21.3071C40.6127 21.3815 40.4397 21.5331 38.5872 23.3958C37.17 24.8208 36.8486 25.1824 36.7739 25.4362C36.6114 25.9878 36.7132 26.22 37.4599 27.0024C38.9267 28.5395 39.6532 30.1357 39.8169 32.181C40.0849 35.5282 38.3437 38.6448 35.3451 40.1851C34.1906 40.7782 33.1166 41.0341 31.4866 41.1045L30.3801 41.1523V39.2064C30.3801 37.0775 30.369 37.0138 29.9343 36.6487C29.6679 36.4249 29.3028 36.3401 28.9111 36.4109C28.6659 36.4553 28.1756 36.916 24.8524 40.2247C22.7735 42.2944 21.0247 44.0781 20.9661 44.1884C20.8295 44.4456 20.8295 44.941 20.9661 45.1982C21.0247 45.3084 22.7735 47.0921 24.8524 49.1619C28.1756 52.4706 28.6659 52.9312 28.9111 52.9756C29.3028 53.0465 29.6679 52.9617 29.9343 52.7379C30.3687 52.3729 30.3801 52.308 30.3801 50.1917V48.2574H31.4615C32.7743 48.2574 33.711 48.1617 34.8429 47.9119C40.519 46.6592 45.0421 42.3519 46.5207 36.7915C46.9126 35.3174 46.9956 34.6352 46.9998 32.85C47.0028 31.5878 46.9728 31.0392 46.8678 30.4368C46.4218 27.8785 45.5443 25.7974 44.0902 23.8492C43.5175 23.0819 42.4028 21.8498 42.0126 21.5526C41.7222 21.3315 41.3131 21.2352 40.9691 21.3071Z" fill="#333333"/>
</svg>
