<svg width="70" height="72" viewBox="0 0 70 72" fill="none" xmlns="http://www.w3.org/2000/svg">
<path d="M66 33C66 14.7746 51.2254 0 33 0C14.7746 0 0 14.7746 0 33C0 51.2254 14.7746 66 33 66C51.2254 66 66 51.2254 66 33Z" fill="#E4E4E4"/>
<path d="M42.4658 5.85235C42.6856 5.62925 42.8527 5.53915 42.974 5.51105C43.0777 5.48715 43.1992 5.49605 43.3723 5.59795C43.5588 5.70765 43.7884 5.91715 44.0665 6.27275C44.3416 6.62465 44.6453 7.09485 44.9874 7.69785L44.9875 7.69795C45.5911 8.76125 47.1487 11.4781 48.4494 13.7353L48.501 13.825C49.2165 15.0667 49.7443 15.9827 50.0892 16.6678C50.2655 17.018 50.3857 17.2919 50.4578 17.507C50.532 17.7286 50.5408 17.8471 50.5352 17.9008C50.5332 17.9203 50.533 17.9186 50.5328 17.9167C50.5327 17.9161 50.5326 17.9155 50.5325 17.9156C50.5073 17.9344 50.429 17.9751 50.2369 18.0083C49.8482 18.0756 49.2531 18.0756 48.3639 18.0756H48.3542H45.9866H45.4866V18.5756V31.703V44.8303V45.1137C44.8088 44.3062 44.0728 43.5233 43.3182 42.8151C42.8212 42.3485 42.3437 41.9222 41.9732 41.6106C41.7888 41.4555 41.6257 41.3244 41.4976 41.2299C41.4345 41.1834 41.3717 41.1397 41.3146 41.1054C41.2866 41.0886 41.2507 41.0684 41.2108 41.0509L41.2099 41.0505C41.201 41.0466 41.1838 41.039 41.1601 41.0309C41.1482 41.0181 41.133 41.0009 41.1149 40.9785C41.0366 40.8817 40.9407 40.7354 40.8539 40.5667C40.8166 40.4943 40.7642 40.345 40.7182 39.979C40.6727 39.617 40.6376 39.0822 40.6117 38.264C40.5601 36.6301 40.5467 33.9237 40.5467 29.3333V18.5756V18.0756H40.0467H37.8371C36.7218 18.0756 36.1069 18.0249 35.775 17.9172C35.6224 17.8676 35.5868 17.8231 35.5819 17.8165L35.5817 17.8162C35.5793 17.813 35.5655 17.7949 35.5598 17.7334C35.5664 17.717 35.5752 17.6962 35.5865 17.6706C35.6283 17.5762 35.6928 17.4426 35.7796 17.2717C35.9523 16.9314 36.202 16.4649 36.5064 15.9109C37.1145 14.804 37.9334 13.362 38.7734 11.9123C39.6133 10.4626 40.4727 9.00795 41.1618 7.87595C41.5065 7.30965 41.807 6.82655 42.0404 6.46615C42.1573 6.28565 42.2554 6.13895 42.3326 6.02925C42.3713 5.97435 42.4029 5.93115 42.4279 5.89885C42.4523 5.86735 42.4641 5.85425 42.4657 5.85255C42.4658 5.85235 42.4659 5.85225 42.4658 5.85235ZM42.4658 5.85235C42.4658 5.85235 42.4658 5.85235 42.4658 5.85245L42.1095 5.50155L42.4658 5.85235ZM45.8369 45.5397L46.2696 45.2425L48.2298 43.8965L47.9467 43.4842L48.2298 43.8965C50.3311 42.4533 52.5495 41.3563 54.9929 40.5532L54.993 40.5531C55.3478 40.4364 55.636 40.3376 55.8641 40.2478C56.0868 40.1602 56.2834 40.0697 56.4374 39.9612C56.6011 39.846 56.7493 39.6875 56.8137 39.4602C56.8728 39.2521 56.8395 39.0563 56.8083 38.9208V38.9207C56.5171 37.6558 56.3109 36.7213 56.2128 36.0378C56.1639 35.6967 56.1448 35.4373 56.1513 35.242C56.158 35.0423 56.1906 34.9499 56.2107 34.9136L56.2109 34.9132C56.2198 34.897 56.2228 34.8917 56.2534 34.8823C56.3051 34.8665 56.4124 34.8537 56.6123 34.8787C57.0177 34.9295 57.6034 35.1051 58.4535 35.3815H58.4536C59.4184 35.695 62.2651 36.6143 64.7799 37.4241C66.3887 37.9422 67.5357 38.3392 68.2979 38.6437C68.6804 38.7964 68.9527 38.9208 69.1336 39.0203C69.2242 39.0701 69.2811 39.1078 69.3137 39.1333C69.3164 39.1354 69.3189 39.1373 69.321 39.139C69.4415 39.3705 69.4896 39.5209 69.4985 39.6433C69.5066 39.7561 69.4845 39.891 69.3676 40.0964C69.2441 40.3132 69.0275 40.5866 68.668 40.9618C68.3115 41.334 67.8353 41.7853 67.2102 42.359L67.5483 42.7274L67.2102 42.359C65.8855 43.5749 64.7127 44.658 64.6306 44.745C64.0905 45.3172 62.7841 46.4936 61.5638 47.5388C60.957 48.0585 60.3796 48.5388 59.9395 48.8877C59.7186 49.0628 59.5375 49.2007 59.4067 49.293C59.3945 49.3017 59.3829 49.3099 59.372 49.3174C59.3207 49.2718 59.2395 49.1759 59.1367 48.9754C58.9453 48.6022 58.757 48.0076 58.5879 47.1699C58.5 46.7342 58.3857 46.3189 58.2693 45.9972C58.2116 45.8379 58.1487 45.6885 58.0822 45.5672C58.0493 45.5071 58.0086 45.4413 57.9593 45.3813C57.9188 45.3319 57.8305 45.2336 57.6899 45.1794C57.6897 45.1793 57.6895 45.1791 57.6893 45.1791L45.8369 45.5397ZM45.8369 45.5397C46.8077 46.7449 47.6355 47.9848 48.1913 49.097L47.7967 49.2942L48.1913 49.097C48.3433 49.4011 48.4916 49.6771 48.6123 49.8858L45.8369 45.5397ZM28.446 35.4016H28.4459C27.5269 35.7123 24.7175 36.626 22.2032 37.4318H22.2031C19.8309 38.192 18.6328 38.6015 18.0142 38.9556C17.7204 39.1238 17.6201 39.2462 17.5745 39.3354C17.5248 39.4325 17.5 39.5648 17.5 39.8468C17.5 39.8911 17.5225 40.0685 18.0757 40.6759C18.6013 41.2528 19.5062 42.1192 21.0248 43.5252C23.3044 45.6358 24.94 47.1229 26.04 48.0812C26.591 48.5612 27.0011 48.9029 27.2876 49.1226C27.4243 49.2274 27.5246 49.298 27.5939 49.3415C27.6541 49.3122 27.7529 49.2303 27.8783 49.0007C28.0649 48.6592 28.241 48.1043 28.3879 47.3019L28.446 35.4016ZM28.446 35.4016C29.3079 35.1101 29.9081 34.9354 30.3218 34.893C30.5251 34.8722 30.6381 34.889 30.6963 34.9095C30.7364 34.9235 30.7535 34.9383 30.7727 34.9739C30.8011 35.0265 30.8364 35.1366 30.8444 35.349C30.8524 35.5578 30.8331 35.8316 30.7821 36.1859C30.6797 36.896 30.4607 37.8589 30.1443 39.1461V39.1463C30.1121 39.2776 30.0795 39.4564 30.1186 39.6469C30.1626 39.8613 30.282 40.0249 30.4341 40.1483C30.572 40.26 30.7442 40.3449 30.9245 40.4194C31.11 40.496 31.3403 40.5757 31.616 40.6657C33.2719 41.2061 36.2159 42.6986 37.9564 43.8857C41.3649 46.2112 43.9844 49.7807 45.0528 53.5359V53.5359C45.4317 54.867 45.4866 55.7984 45.4866 62.5765V69.9684L44.8447 70.6722L45.2142 71.0092L44.8447 70.6723C43.6613 71.9701 41.6686 71.6963 40.9107 70.1715L40.491 70.3801L40.9107 70.1714C40.7738 69.896 40.6737 69.5666 40.6167 68.4788C40.5595 67.389 40.5473 65.6061 40.5472 62.4625C40.547 58.5862 40.5303 56.47 40.3308 55.0485C40.1233 53.5706 39.7137 52.8175 38.9935 51.675L38.9934 51.6749C38.56 50.9877 37.4853 49.8417 36.5977 49.0971C35.8107 48.4369 34.4917 47.6011 33.2173 46.8973C31.9562 46.2009 30.6558 45.5875 29.9129 45.4171L29.9128 45.417M28.446 35.4016L29.9128 45.417ZM29.9128 45.417L29.8996 45.4141ZM29.9128 45.417L29.8996 45.4141ZM29.8996 45.4141C29.7692 45.3842 29.576 45.3398 29.393 45.358ZM29.8996 45.4141L29.393 45.358ZM29.393 45.358C29.2816 45.3691 29.1616 45.4028 29.0473 45.4771ZM29.393 45.358L29.0473 45.4771ZM29.0473 45.4771C28.9353 45.55 28.8552 45.6445 28.7969 45.7387ZM29.0473 45.4771L28.7969 45.7387ZM28.7969 45.7387C28.6907 45.9101 28.6271 46.1309 28.574 46.3573ZM28.7969 45.7387L28.574 46.3573ZM28.574 46.3573C28.518 46.5963 28.4598 46.9091 28.3879 47.3018L28.574 46.3573ZM35.5427 17.7805C35.5425 17.7805 35.5434 17.7772 35.5457 17.7703C35.544 17.7768 35.5428 17.7804 35.5427 17.7805ZM69.3348 39.1514C69.3347 39.1512 69.3342 39.1506 69.3334 39.1497C69.3346 39.1509 69.335 39.1515 69.3348 39.1514Z" fill="#333333"/>
</svg>
