<svg width="55" height="52" viewBox="0 0 55 52" fill="none" xmlns="http://www.w3.org/2000/svg">
<path d="M47 23.5C47 10.5213 36.4787 0 23.5 0C10.5213 0 0 10.5213 0 23.5C0 36.4787 10.5213 47 23.5 47C36.4787 47 47 36.4787 47 23.5Z" fill="#FBE9EA"/>
<path fill-rule="evenodd" clip-rule="evenodd" d="M23.2934 15.2331C22.8235 15.3583 22.2159 15.541 21.9433 15.6392C21.4264 15.8254 19.6843 16.6737 19.5973 16.7816C19.5698 16.8157 19.2885 17.0127 18.9723 17.2194C18.656 17.4261 18.3972 17.6397 18.3972 17.6941C18.3972 17.7486 18.3477 17.7931 18.2873 17.7931C18.0906 17.7931 16.5599 19.4499 16.058 20.206C15.7889 20.6113 15.4852 21.0648 15.3829 21.2139C15.2807 21.3629 15.197 21.5274 15.197 21.5794C15.197 21.6314 15.112 21.847 15.0081 22.0584C14.6699 22.7469 14.4988 23.2269 14.2477 24.1928C14.0295 25.0317 14.0006 25.3529 14 26.9426C13.9992 28.8335 14.1367 29.689 14.6829 31.1924C14.8813 31.7384 15.6257 33.2277 15.8201 33.4673C15.8986 33.564 16.9334 33.592 20.3846 33.5908C22.8394 33.5899 24.8977 33.5562 24.9587 33.5158C25.0198 33.4754 25.1499 33.2848 25.2478 33.0924C25.3456 32.8999 25.4567 32.7199 25.4946 32.6924C25.5325 32.6649 25.6947 32.3949 25.8549 32.0924C26.0152 31.7899 26.1741 31.5199 26.2081 31.4924C26.2421 31.4649 26.3444 31.2969 26.4355 31.1191C26.8516 30.3074 27.9368 30.2885 28.4202 31.0846C28.5397 31.2814 28.6673 31.4649 28.7038 31.4924C28.7402 31.5199 28.8452 31.6774 28.9371 31.8424C29.1369 32.2014 29.2533 32.3867 30.0981 33.6923C30.929 34.9764 31.0567 35.1794 31.2558 35.5328C31.4479 35.8738 31.779 36.2461 31.8359 36.1849C31.8784 36.1392 32.8302 34.1609 33.4442 32.8424C33.649 32.4024 33.9771 31.7049 34.1733 31.2924C34.4654 30.6785 35.0491 29.4387 35.3973 28.6926C35.4358 28.6101 35.5158 28.4526 35.5751 28.3426C35.6345 28.2326 35.9606 27.5662 36.2997 26.8618C36.9829 25.4427 37.0997 25.3371 37.8904 25.4236C38.4057 25.4799 38.4937 25.5757 39.0935 26.7346C39.3235 27.179 39.6253 27.7451 39.7642 27.9926C39.9031 28.2401 40.172 28.7351 40.3619 29.0925C40.5517 29.45 40.9765 30.2375 41.3058 30.8425C41.635 31.4474 41.9938 32.1224 42.1031 32.3424C42.2125 32.5624 42.4029 32.9224 42.5264 33.1424L42.7508 33.5423H47.9495H53.1482L53.3704 33.1424C53.6807 32.584 54.1999 31.4816 54.1999 31.3812C54.1999 31.3353 54.2851 31.1053 54.3893 30.8702C54.8338 29.8662 55 28.8067 55 26.9783C55 25.1706 54.8558 24.2879 54.3247 22.8428C53.182 19.7347 50.5111 17.0268 47.3494 15.7712C45.7082 15.1195 44.7886 14.9722 42.6103 15.0121C40.686 15.0473 40.5878 15.0637 38.9488 15.621C37.7624 16.0245 35.5172 17.2722 35.2685 17.6663C35.2245 17.736 35.1233 17.7931 35.0435 17.7931C34.9638 17.7931 34.8985 17.839 34.8985 17.8951C34.8985 17.9513 34.7883 18.0475 34.6537 18.1088C34.4365 18.2077 34.3545 18.1753 33.9286 17.8217C33.6645 17.6026 33.2459 17.2931 32.9983 17.1341C32.7508 16.9751 32.5258 16.8157 32.4983 16.7799C32.4212 16.6796 30.9034 15.9296 30.3981 15.7422C30.1506 15.6504 29.4756 15.445 28.898 15.2856C27.91 15.0129 27.7387 14.996 25.9978 15.0006C24.3992 15.0047 24.0316 15.0363 23.2934 15.2331ZM37.578 29.3175C37.499 29.4413 37.3308 29.7675 37.2043 30.0425C36.8642 30.7817 35.455 33.7636 35.1841 34.3173C35.137 34.4136 35.06 34.571 35.0129 34.6673C34.9658 34.7636 34.7368 35.2473 34.504 35.7422C32.834 39.292 32.7821 39.3895 32.4783 39.5497C32.3297 39.628 32.0822 39.6919 31.9283 39.6917C31.5644 39.6912 31.0169 39.3544 30.9061 39.0629C30.8582 38.937 30.7468 38.774 30.6586 38.7007C30.5704 38.6275 30.4982 38.5277 30.4982 38.479C30.4982 38.4302 30.2397 37.9969 29.9238 37.5163C29.608 37.0355 29.3042 36.5631 29.2488 36.4664C29.1191 36.2402 28.2186 34.8152 28.0087 34.5041C27.9203 34.373 27.7931 34.1705 27.7262 34.0541C27.5734 33.7882 27.4021 33.7839 27.2588 34.0423C27.1978 34.1523 27.1204 34.2648 27.0869 34.2923C27.0533 34.3198 26.9472 34.4956 26.8512 34.6829C26.6455 35.0842 26.5447 35.2191 26.1622 35.6044L25.8766 35.8922H21.8369C19.615 35.8922 17.7974 35.926 17.7977 35.9672C17.798 36.0084 21.4035 39.6196 25.8099 43.9919L33.8217 51.9415L34.4467 51.9708L35.0719 52L36.2993 50.8209C38.1339 49.0582 51.0439 36.1095 51.0828 35.993C51.105 35.9262 49.544 35.8922 46.4611 35.8922H41.8057L41.4436 35.5301C41.2445 35.3311 40.9975 34.9824 40.8948 34.7552C40.7921 34.5281 40.5341 34.0273 40.3214 33.6423C40.1088 33.2573 39.8747 32.8299 39.8013 32.6924C39.7278 32.5549 39.6313 32.3749 39.5868 32.2924C39.5423 32.2099 39.3524 31.8499 39.1648 31.4924C38.9773 31.1349 38.6824 30.603 38.5096 30.3102C38.3367 30.0174 38.1309 29.6237 38.0521 29.4352C37.8848 29.0348 37.7758 29.0078 37.578 29.3175Z" fill="#D92029"/>
</svg>
