<svg width="50" height="47" viewBox="0 0 50 47" fill="none" xmlns="http://www.w3.org/2000/svg">
<path d="M47 23.5C47 10.5213 36.4787 0 23.5 0C10.5213 0 0 10.5213 0 23.5C0 36.4787 10.5213 47 23.5 47C36.4787 47 47 36.4787 47 23.5Z" fill="#EBEBEB"/>
<path fill-rule="evenodd" clip-rule="evenodd" d="M17.3767 6.05722C15.4836 6.37192 13.9065 7.70722 13.2296 9.56862L13 10.2V16.2456C13 21.887 13.01 22.3226 13.1492 22.7612C13.719 24.5554 15.09 25.8855 16.9084 26.4082C17.3362 26.5311 17.892 26.5504 21.7907 26.5773L26.1902 26.6079L26.2818 25.8325C26.4439 24.4603 26.8203 23.4127 27.5316 22.3537C28.834 20.415 30.9313 19.1747 33.3522 18.9117L34.1923 18.8205L34.1643 14.5103C34.133 9.68122 34.161 9.92852 33.5076 8.70262C33.0551 7.85372 32.2473 7.06872 31.3739 6.62902C30.0772 5.97632 30.5713 6.01732 23.8154 6.00142C20.5057 5.99362 17.6083 6.01872 17.3767 6.05722ZM21.5742 12.6079C22.0531 12.8454 22.2564 13.2247 22.2136 13.8011C22.1835 14.2048 22.1397 14.3107 21.905 14.5459C21.3985 15.0537 20.6779 15.0998 20.1595 14.6574C19.8064 14.3561 19.6798 14.0384 19.726 13.5698C19.8137 12.6834 20.7468 12.1977 21.5742 12.6079ZM26.9719 12.7126C27.552 13.1425 27.6727 13.9115 27.2454 14.4559C26.4499 15.4695 24.7892 14.8407 24.9352 13.5814C25.0452 12.6327 26.1999 12.1402 26.9719 12.7126ZM24.8724 16.5616C26.2898 17.0357 27.2607 18.2104 27.4725 19.7075L27.5307 20.1179H23.6197H19.7088L19.7098 19.8611C19.7125 19.1388 20.1414 18.2109 20.7786 17.549C21.8332 16.4534 23.4112 16.0729 24.8724 16.5616ZM33.411 21.4359C31.7596 21.6599 30.1769 22.7801 29.4025 24.2732C28.84 25.358 28.8571 25.124 28.8571 31.6954C28.8571 37.1903 28.868 37.6594 29.0052 38.1297C29.4469 39.6423 30.4761 40.8284 31.9288 41.4989C33.0372 42.0104 33.1558 42.0179 39.7652 41.992L45.6901 41.9689L46.3398 41.7457C48.0161 41.1701 49.178 40.0408 49.7704 38.4119L50 37.7804V31.6954V25.6103L49.7704 24.9789C49.1794 23.3537 48.0445 22.2411 46.3909 21.6657L45.6901 21.4219L39.6725 21.4123C36.3629 21.407 33.5452 21.4176 33.411 21.4359ZM37.5065 27.7624C38.2779 28.3175 38.2822 29.3013 37.5157 29.8528C37.0023 30.2221 36.1372 30.0654 35.767 29.536C35.4945 29.1461 35.4862 28.5003 35.7489 28.1238C36.134 27.572 36.9958 27.3947 37.5065 27.7624ZM42.5889 27.6554C43.1466 27.8818 43.473 28.5685 43.2959 29.1428C43.0016 30.0975 41.8624 30.3622 41.1264 29.6469C40.1572 28.705 41.3096 27.1359 42.5889 27.6554ZM43.3219 32.3473C43.1276 33.772 42.3861 34.8206 41.1619 35.4017C39.3384 36.2674 37.2322 35.688 36.1289 34.0172C35.8268 33.5596 35.5659 32.7919 35.5659 32.3601V32.051H39.4641H43.3623L43.3219 32.3473Z" fill="#333333"/>
</svg>
