<svg width="72" height="72" viewBox="0 0 72 72" fill="none" xmlns="http://www.w3.org/2000/svg">
<path d="M66 33C66 14.7746 51.2254 0 33 0C14.7746 0 0 14.7746 0 33C0 51.2254 14.7746 66 33 66C51.2254 66 66 51.2254 66 33Z" fill="#EEDBDC"/>
<path fill-rule="evenodd" clip-rule="evenodd" d="M31.2112 16.0861C29.8047 16.4105 28.6681 17.2643 28.0364 18.471C27.6322 19.2429 27.5027 19.7737 27.505 20.6471C27.5087 21.9743 28.0162 23.0971 29.034 24.0299C30.2113 25.1086 31.7977 25.4809 33.3895 25.052C33.5942 24.9968 33.5972 25.0022 35.564 28.9319C36.787 31.3756 37.6155 32.9445 37.7498 33.0714C38.2931 33.5842 39.3171 33.446 39.643 32.8158C39.8971 32.3245 39.8231 32.144 37.5989 27.8238L35.5104 23.7671L35.7225 23.4974C35.9977 23.1475 36.37 22.4686 36.4832 22.1104L36.5725 21.8279L42.5824 21.8068L48.5924 21.7856L48.869 21.6136C49.5229 21.2069 49.5744 20.2603 48.973 19.6983L48.7699 19.5086L42.6813 19.4883L36.5927 19.468L36.4456 19.0329C36.1143 18.0532 35.187 17.004 34.2215 16.5167C33.2991 16.0512 32.1038 15.8802 31.2112 16.0861ZM54.5126 16.0272C52.8322 16.2866 51.4362 17.4077 50.81 19.0007C50.5149 19.7512 50.4392 20.9002 50.6339 21.6726C50.7975 22.3216 51.1508 23.034 51.5547 23.53L51.8818 23.9315L49.5618 27.8679C47.315 31.6801 47.2407 31.8189 47.2108 32.2598C47.1862 32.6237 47.2111 32.765 47.3352 32.9626C47.7467 33.6184 48.5858 33.6885 49.2093 33.1193C49.2981 33.0382 50.4081 31.1991 51.6761 29.0324C53.3907 26.1021 54.0105 25.1033 54.0952 25.1336C54.1578 25.156 54.4993 25.1922 54.8542 25.2142C56.0958 25.291 57.2927 24.8683 58.2078 24.0299C58.8504 23.441 59.2281 22.8681 59.51 22.0546C60.0467 20.5057 59.6729 18.7741 58.5287 17.5098C57.7357 16.6335 56.5407 16.0716 55.3597 16.0194C55.019 16.0043 54.6378 16.0079 54.5126 16.0272ZM33.1103 18.5952C33.892 18.9777 34.361 19.7328 34.361 20.6091C34.361 21.2731 34.1706 21.722 33.6836 22.2061C33.0436 22.842 32.2935 23.0303 31.4263 22.7727C30.1755 22.4014 29.5013 20.9277 30.0297 19.72C30.2145 19.2976 30.7949 18.6922 31.1521 18.5491C31.8293 18.278 32.4939 18.2936 33.1103 18.5952ZM56.0195 18.5218C56.1804 18.5892 56.4755 18.7973 56.6755 18.9843C58.1675 20.3799 57.165 22.8861 55.1147 22.8861C54.2434 22.8861 53.2801 22.2119 53.008 21.4115C52.8496 20.9459 52.8445 20.2755 52.9961 19.8459C53.4165 18.6543 54.8437 18.0293 56.0195 18.5218ZM58.3835 25.353C57.7932 25.5618 57.4723 26.164 57.6474 26.7347C57.6919 26.8798 58.9442 29.2823 60.4302 32.0736L63.1319 37.1486L62.8645 37.5209C62.5858 37.9087 62.2165 38.6738 62.2165 38.8632C62.2165 38.9574 61.5238 38.9757 57.296 38.9939L52.3755 39.015L52.103 39.2229C51.7779 39.4708 51.6339 39.8516 51.6871 40.323C51.7331 40.7318 51.9265 41.0173 52.2789 41.197C52.5186 41.3192 52.9212 41.3297 57.3779 41.3298C61.5865 41.3299 62.2165 41.3445 62.2165 41.4416C62.2165 41.6389 62.5808 42.3846 62.8981 42.837L63.2062 43.2763L60.4726 47.8629C58.9691 50.3854 57.7177 52.5619 57.6917 52.6993C57.6284 53.0336 57.8434 53.5821 58.1128 53.774C58.5032 54.0519 58.8559 54.0495 59.3938 53.7652L59.8727 53.512L62.5172 49.0718C65.0783 44.7713 65.1683 44.6322 65.3778 44.6504C67.2065 44.8093 67.6985 44.7544 68.6739 44.2828C69.8559 43.7111 70.8374 42.4956 71.1345 41.2354C71.2785 40.6245 71.2774 39.6777 71.132 39.0607C70.7628 37.4947 69.3155 36.0473 67.7494 35.6782C67.1336 35.533 66.0957 35.5308 65.5597 35.6735C65.332 35.734 65.1399 35.7763 65.1327 35.7674C65.1255 35.7585 63.9674 33.5824 62.559 30.9316C61.1506 28.2808 59.9145 25.9811 59.8121 25.8213C59.6243 25.5283 59.1395 25.2407 58.8389 25.2441C58.7554 25.245 58.5505 25.294 58.3835 25.353ZM27.5465 25.9725C27.4095 26.04 27.2315 26.1879 27.1509 26.301C27.0703 26.4143 25.9395 28.5698 24.638 31.0911C23.3364 33.6125 22.2469 35.7031 22.2167 35.7371C22.1865 35.771 21.9559 35.7454 21.7041 35.6801C21.1264 35.5305 20.123 35.5296 19.4924 35.6782C17.9263 36.0473 16.479 37.4947 16.1098 39.0607C15.9644 39.6777 15.9633 40.6245 16.1073 41.2354C16.4795 42.8142 17.8644 44.2163 19.4626 44.6326C20.0237 44.7788 21.1529 44.777 21.7205 44.6293C21.9659 44.5654 22.1915 44.5397 22.222 44.5723C22.2523 44.6049 23.327 46.4418 24.6101 48.6543C25.8931 50.8668 27.007 52.7681 27.0852 52.8793C27.1635 52.9905 27.3833 53.1569 27.5736 53.2491C28.634 53.7624 29.6673 52.7137 29.1313 51.6684C29.052 51.5135 27.9051 49.5253 26.5828 47.2502C24.4275 43.5417 24.1887 43.0979 24.2752 42.9618C24.6821 42.3217 24.8713 41.9637 24.9579 41.6704L25.0585 41.3299L29.8805 41.3298C34.3213 41.3297 34.7232 41.3192 34.9629 41.197C35.3153 41.0173 35.5087 40.7318 35.5547 40.323C35.6079 39.8516 35.4639 39.4708 35.1388 39.2229L34.8663 39.015L29.9458 38.9939C25.6409 38.9754 25.0253 38.9586 25.0253 38.8594C25.0253 38.6618 24.604 37.814 24.3265 37.453L24.0593 37.1054L25.0012 35.2898C28.2863 28.9573 29.0933 27.3845 29.1536 27.1971C29.2591 26.8688 29.022 26.3388 28.6487 26.0683C28.2964 25.8131 27.9339 25.7816 27.5465 25.9725ZM42.1408 33.5092C39.6206 34.1754 37.8022 35.8842 36.9685 38.3698L36.7522 39.015L36.7521 41.9371C36.7519 44.7455 36.7586 44.8823 36.9233 45.4505C37.2611 46.6161 37.7655 47.5155 38.5545 48.3589L38.991 48.8255V49.8974C38.991 50.487 38.9726 50.9693 38.9501 50.9693C38.7895 50.9693 32.8737 52.7597 32.5591 52.9036C31.5488 53.3656 30.4928 54.2806 29.8429 55.2575C29.3238 56.0376 29.0796 56.5861 28.8499 57.4875L28.6685 58.1993L28.6688 64.3185C28.669 70.25 28.6736 70.4452 28.817 70.6804C29.0441 71.0529 29.3165 71.1943 29.807 71.1943C30.2793 71.1943 30.5531 71.0613 30.7737 70.7248C30.8979 70.5353 30.9103 70.0855 30.9457 64.483L30.9837 58.4455L31.1925 57.8551C31.6203 56.6455 32.4769 55.6443 33.5336 55.1189C33.8925 54.9405 35.2728 54.4915 37.3551 53.8758C40.8511 52.842 40.9507 52.7995 41.2216 52.2287C41.3923 51.869 41.4044 48.0405 41.2359 47.7208C41.1764 47.6081 40.9034 47.3003 40.6292 47.0369C39.8668 46.3046 39.4134 45.5677 39.1863 44.6911C39.0178 44.0409 39.0146 39.9293 39.1821 39.219C39.6929 37.052 41.7782 35.4422 43.8865 35.5872C45.5259 35.6999 47.0077 36.6621 47.7135 38.0724C48.1646 38.9738 48.1875 39.1798 48.1572 42.0663C48.1312 44.5301 48.1231 44.6507 47.9531 45.1142C47.4426 46.5053 46.2367 47.6265 44.8478 48.0012C44.5221 48.0891 44.1129 48.161 43.9383 48.161H43.6209V49.3487V50.5364L44.2091 50.4898C44.5327 50.4643 45.045 50.3799 45.3476 50.3023L45.8979 50.1613V51.0347C45.8979 51.9907 46.0297 52.4332 46.3834 52.665C46.4795 52.7278 48.0745 53.2293 49.9281 53.7793C53.619 54.8745 54.0272 55.04 54.7594 55.739C55.6048 56.5459 56.0841 57.5156 56.2189 58.6916C56.263 59.0764 56.2954 61.6892 56.296 64.897C56.2968 70.2546 56.3017 70.4458 56.4447 70.6804C56.6719 71.0529 56.9442 71.1943 57.4348 71.1943C57.9253 71.1943 58.1977 71.0529 58.4248 70.6804C58.5682 70.4452 58.5727 70.2521 58.5717 64.4037C58.5706 57.825 58.5773 57.941 58.1265 56.772C57.7011 55.6689 56.804 54.5171 55.782 53.7622C54.8954 53.1072 54.3869 52.9048 51.2868 51.9724L48.2888 51.0708L48.2677 49.9855L48.2466 48.9003L48.663 48.4636C49.2053 47.8951 49.7908 46.9774 50.0667 46.2635C50.4859 45.1789 50.5279 44.7798 50.5273 41.8834C50.5267 38.7978 50.4788 38.4699 49.8431 37.1934C48.8821 35.2636 47.1383 33.9333 44.9632 33.4705C44.2262 33.3136 42.8069 33.3331 42.1408 33.5092ZM21.3101 38.0005C21.7927 38.145 22.4005 38.6819 22.6431 39.1777C22.8181 39.5354 22.8575 39.7157 22.8557 40.1508C22.8528 40.8389 22.6406 41.3233 22.1336 41.7993C21.285 42.5961 19.9713 42.6095 19.0505 41.8307C18.9163 41.7171 18.6984 41.4048 18.5664 41.1367C18.3445 40.6861 18.329 40.6047 18.3616 40.0598C18.4172 39.1299 18.8521 38.4755 19.6666 38.0962C20.1011 37.8939 20.8155 37.8523 21.3101 38.0005ZM67.5752 38.0962C68.3897 38.4755 68.8246 39.1299 68.8802 40.0598C68.9127 40.6047 68.8973 40.6861 68.6754 41.1367C68.5434 41.4048 68.3255 41.7171 68.1912 41.8307C67.0114 42.8286 65.2612 42.4833 64.5948 41.1212C64.1035 40.1173 64.5032 38.7427 65.4345 38.2333C66.1276 37.8542 66.9433 37.8019 67.5752 38.0962ZM43.0798 54.0817C42.2764 54.5062 42.2849 55.72 43.0942 56.1329C43.4795 56.3295 43.821 56.3212 44.1753 56.1068C44.5724 55.8664 44.7583 55.5592 44.7589 55.1426C44.7596 54.6928 44.5482 54.3113 44.1823 54.1014C43.8219 53.8948 43.4462 53.8881 43.0798 54.0817ZM43.0437 58.7036C42.6865 58.9214 42.4824 59.3064 42.4824 59.7624C42.4824 60.1168 42.511 60.1804 42.811 60.4935C43.1329 60.8295 43.1491 60.8364 43.6209 60.8364C44.0947 60.8364 44.1077 60.8308 44.4403 60.4836L44.7784 60.1308L44.7393 59.6434C44.6973 59.1213 44.5489 58.8803 44.137 58.666C43.8469 58.5151 43.3234 58.5331 43.0437 58.7036ZM35.0037 62.1265C34.8354 62.2099 34.6305 62.3891 34.5483 62.5249C34.4051 62.7618 34.399 62.9274 34.399 66.6182C34.399 70.3846 34.4023 70.469 34.5555 70.6742C34.8526 71.0722 35.0959 71.197 35.5694 71.1944C36.0698 71.1915 36.3382 71.053 36.5655 70.6804C36.7069 70.4484 36.7134 70.2701 36.7136 66.5971L36.714 62.7563L36.5417 62.4984C36.2057 61.9955 35.576 61.8433 35.0037 62.1265ZM51.1366 62.1079C50.9913 62.1808 50.7949 62.3566 50.7001 62.4984L50.5278 62.7563L50.5281 66.5971C50.5284 70.2701 50.5349 70.4484 50.6763 70.6804C50.9035 71.053 51.172 71.1915 51.6724 71.1944C52.1459 71.197 52.3892 71.0722 52.6863 70.6742C52.8395 70.469 52.8428 70.3846 52.8428 66.6182C52.8428 62.9203 52.837 62.7623 52.6927 62.5236C52.4008 62.041 51.6622 61.8437 51.1366 62.1079ZM43.202 63.2152C43.076 63.2722 42.8626 63.4447 42.7276 63.5983C42.529 63.8246 42.4824 63.9425 42.4824 64.219C42.4824 64.9113 42.8683 65.3755 43.5032 65.4471C44.1705 65.5223 44.7594 64.9858 44.7594 64.3026C44.7594 63.5158 43.8854 62.9056 43.202 63.2152Z" fill="#D92029"/>
</svg>
