<svg width="49" height="48" viewBox="0 0 49 48" fill="none" xmlns="http://www.w3.org/2000/svg">
<path d="M47 23.5C47 10.5213 36.4787 0 23.5 0C10.5213 0 0 10.5213 0 23.5C0 36.4787 10.5213 47 23.5 47C36.4787 47 47 36.4787 47 23.5Z" fill="#EBEBEB"/>
<path fill-rule="evenodd" clip-rule="evenodd" d="M23.0816 12.0398C17.7278 12.4402 12.9766 16.0027 10.9912 21.1054C9.98662 23.6873 9.73692 26.5747 10.282 29.3058C10.4484 30.1396 10.9819 31.7757 11.295 32.4125L11.5382 32.9073L11.0545 34.7626C10.4613 37.0372 10.424 37.3043 10.6016 38.0097C10.9434 39.3673 11.9938 40.2659 13.3386 40.3509C13.8584 40.3838 14.1346 40.3301 15.8255 39.8672L17.7277 39.3466L18.0633 39.4885C19.7167 40.1882 20.8793 40.5234 22.3149 40.7144C23.4242 40.862 25.867 40.7695 26.9355 40.5395C31.1282 39.6369 34.6318 36.9927 36.6571 33.2025C37.8085 31.0476 38.4143 28.3242 38.3076 25.7836C37.9661 17.6591 31.0783 11.4418 23.0816 12.0398ZM41.0052 20.7275C41.0306 20.84 41.1651 21.3753 41.3041 21.9172C41.6696 23.3431 41.8318 24.6759 41.8358 26.2871C41.8396 27.8247 41.7388 28.8 41.4276 30.238C40.2561 35.6506 36.6182 40.2511 31.6322 42.6257C29.9818 43.4117 27.6567 44.058 26.1689 44.1443C25.7472 44.1687 25.4023 44.2211 25.4023 44.2606C25.4023 44.3001 25.6913 44.5669 26.0446 44.8534C29.3526 47.5364 33.478 48.5571 37.5857 47.7087C38.6074 47.4977 39.6725 47.1482 40.5481 46.7365L41.1752 46.4417L43.0479 46.957C44.7659 47.4297 44.9754 47.4694 45.5837 47.4376C46.1395 47.4085 46.3316 47.3568 46.7716 47.1182C47.6859 46.6223 48.2548 45.7786 48.3976 44.707C48.4571 44.261 48.3965 43.9335 47.755 41.2343L47.4692 40.0317L47.7087 39.5166C48.6867 37.4122 49.1562 34.7366 48.9536 32.4224C48.5158 27.4245 45.8335 23.2395 41.5308 20.8418C40.9691 20.5288 40.9598 20.5267 41.0052 20.7275Z" fill="#333333"/>
</svg>
