<svg width="54" height="47" viewBox="0 0 54 47" fill="none" xmlns="http://www.w3.org/2000/svg">
<path d="M47 23.5C47 10.5213 36.4787 0 23.5 0C10.5213 0 0 10.5213 0 23.5C0 36.4787 10.5213 47 23.5 47C36.4787 47 47 36.4787 47 23.5Z" fill="#EBEBEB"/>
<path fill-rule="evenodd" clip-rule="evenodd" d="M17.0689 8.13971C16.4077 8.35211 15.9583 8.63651 15.4733 9.14971C15.0058 9.64451 14.789 10.0225 14.5926 10.6853C14.4742 11.0852 14.4606 12.2368 14.4606 21.8707V32.6101H25.6166H36.7726L36.7733 25.119C36.7736 20.351 36.8047 17.4375 36.8587 17.1042C37.2014 14.9909 38.8544 13.3365 40.9661 12.9936C41.2856 12.9417 43.4456 12.9084 46.5136 12.9081L51.5379 12.9074V12.0117C51.5379 11.0316 51.3933 10.403 51.0221 9.76911C50.7115 9.23851 49.9682 8.58142 49.3444 8.28562L48.79 8.02281L33.1633 8.00611C18.2206 7.99021 17.5162 7.99601 17.0689 8.13971ZM40.7925 15.5134C40.2779 15.6951 39.5499 16.4386 39.371 16.9652C39.2452 17.3353 39.2335 18.2504 39.2335 27.6844C39.2335 39.4621 39.1708 38.4704 39.9657 39.2659C40.7338 40.0346 40.4074 39.9986 46.6162 39.9986C52.8249 39.9986 52.4985 40.0346 53.2666 39.2659C54.0615 38.4704 53.9988 39.4621 53.9988 27.6844C53.9988 15.9068 54.0615 16.8985 53.2666 16.103C52.4973 15.3331 52.8307 15.3693 46.5811 15.3767C41.8535 15.3824 41.1141 15.3999 40.7925 15.5134ZM47.0005 19.1519C47.8303 19.4656 48.0716 20.4962 47.4639 21.131C46.6204 22.0122 45.0807 21.1005 45.4615 19.9454C45.6761 19.2946 46.3962 18.9233 47.0005 19.1519ZM48.4715 34.0519C48.8781 34.356 49.0266 34.6292 49.0266 35.073C49.0266 35.5168 48.8781 35.79 48.4715 36.0941C48.2692 36.2454 48.105 36.2663 46.9259 36.2913C45.2833 36.3261 44.967 36.2818 44.608 35.9663C44.0946 35.5152 44.034 34.8347 44.4621 34.3257C44.8388 33.8777 45.0183 33.8407 46.713 33.8627C48.1152 33.8809 48.2645 33.897 48.4715 34.0519ZM12.5936 35.2367C12.0909 35.5434 12.0003 35.8075 12 36.9671C11.9996 38.2958 12.1104 38.644 12.7319 39.2659C13.5305 40.0652 12.3508 39.9986 25.722 39.9986C35.0709 39.9986 37.4372 39.9779 37.4013 39.896C36.8557 38.6561 36.7741 38.2028 36.7733 36.407L36.7726 35.073L24.8168 35.0733C13.0314 35.0735 12.8572 35.0759 12.5936 35.2367Z" fill="#333333"/>
</svg>
