<svg width="50" height="47" viewBox="0 0 50 47" fill="none" xmlns="http://www.w3.org/2000/svg">
<path d="M47 23.5C47 10.5213 36.4787 0 23.5 0C10.5213 0 0 10.5213 0 23.5C0 36.4787 10.5213 47 23.5 47C36.4787 47 47 36.4787 47 23.5Z" fill="#FBE9EA"/>
<path fill-rule="evenodd" clip-rule="evenodd" d="M23.6442 14.1446C22.2489 14.5331 20.9971 15.7021 20.5146 17.067L20.35 17.5327H19.8781H19.4062L17.2579 15.8716C16.0764 14.9579 15.0986 14.2243 15.0851 14.2411C14.5908 14.8575 13.7349 16.1441 13.7928 16.1834C13.8357 16.2124 14.2379 16.519 14.6865 16.8648L15.5023 17.4934L13.2511 17.5142L11 17.535V18.7114V19.8877L13.2511 19.9085L15.5023 19.9294L14.6865 20.558C14.2379 20.9037 13.8357 21.2104 13.7928 21.2394C13.7349 21.2786 14.5908 22.5652 15.0851 23.1817C15.0986 23.1985 16.0764 22.4648 17.2579 21.5512L19.4062 19.8901H19.8781H20.35L20.5146 20.3557C20.8734 21.3708 21.7383 22.3737 22.6994 22.8893C23.7274 23.4407 23.5158 23.4261 30.5026 23.4261C37.4894 23.4261 37.2778 23.4407 38.3058 22.8893C39.2669 22.3737 40.1318 21.3708 40.4906 20.3557L40.6553 19.8901L41.9592 19.8916C43.502 19.8934 44.1058 19.9715 44.8317 20.2628C46.7124 21.0175 47.9253 23.1407 47.6486 25.1934C47.3649 27.2966 45.794 28.939 43.7784 29.2396C43.495 29.2819 42.6764 29.3172 41.9592 29.318L40.6553 29.3196L40.4906 28.8539C40.1318 27.8388 39.2669 26.8359 38.3058 26.3204C37.2778 25.769 37.4894 25.7835 30.5026 25.7835C23.5158 25.7835 23.7274 25.769 22.6994 26.3204C21.7413 26.8343 20.8734 27.8389 20.5174 28.8461L20.3555 29.3039L18.4774 29.3411C17.0632 29.3691 16.4944 29.4096 16.1742 29.5051C13.6647 30.2534 11.8718 32.1147 11.1725 34.6976C10.9911 35.3675 10.9911 37.4159 11.1725 38.0858C11.8718 40.6687 13.6647 42.5301 16.1742 43.2784C16.4944 43.3738 17.0632 43.4144 18.4774 43.4424L20.3555 43.4796L20.5174 43.9374C20.8734 44.9446 21.7413 45.9492 22.6994 46.4631C23.7274 47.0145 23.5158 47 30.5026 47C37.4894 47 37.2778 47.0145 38.3058 46.4631C39.2669 45.9475 40.1318 44.9446 40.4906 43.9295L40.6553 43.4639H42.6791C43.7991 43.4639 44.6707 43.4937 44.6306 43.5308C44.5908 43.5676 44.1983 43.8739 43.7583 44.2116C43.3184 44.5492 42.9454 44.836 42.9294 44.8491C42.8805 44.8888 44.2493 46.7592 44.3136 46.7405C44.4051 46.7138 50 42.3301 50 42.2852C50 42.2402 44.4051 37.8566 44.3136 37.8299C44.2493 37.8112 42.8805 39.6815 42.9294 39.7213C42.9454 39.7344 43.3184 40.0212 43.7583 40.3588C44.1983 40.6965 44.5908 41.0028 44.6306 41.0396C44.6707 41.0766 43.7991 41.1065 42.6791 41.1065H40.6553L40.4906 40.6408C40.1318 39.6258 39.2669 38.6228 38.3058 38.1073C37.2778 37.5559 37.4894 37.5704 30.5026 37.5704C23.5158 37.5704 23.7274 37.5559 22.6994 38.1073C21.7383 38.6228 20.8734 39.6258 20.5146 40.6408L20.35 41.1065L19.0461 41.1049C18.3289 41.1041 17.5102 41.0688 17.2268 41.0265C15.2113 40.7259 13.6403 39.0835 13.3567 36.9803C13.0799 34.9276 14.2929 32.8044 16.1735 32.0498C16.8995 31.7584 17.5033 31.6804 19.0461 31.6785L20.35 31.677L20.5146 32.1426C20.8734 33.1577 21.7383 34.1606 22.6994 34.6762C23.7274 35.2276 23.5158 35.213 30.5026 35.213C37.4894 35.213 37.2778 35.2276 38.3058 34.6762C39.264 34.1623 40.1318 33.1576 40.4879 32.1505L40.6497 31.6927L42.5278 31.6554C43.9421 31.6275 44.5108 31.5869 44.831 31.4915C47.3406 30.7432 49.1335 28.8818 49.8328 26.2989C50.0142 25.629 50.0142 23.5806 49.8328 22.9107C49.1335 20.3278 47.3406 18.4664 44.831 17.7182C44.5108 17.6227 43.9421 17.5822 42.5278 17.5542L40.6497 17.517L40.4879 17.0592C40.1318 16.052 39.264 15.0474 38.3058 14.5335C37.2761 13.9811 37.4963 13.9961 30.4597 14.0013C24.673 14.0056 24.0996 14.0177 23.6442 14.1446Z" fill="#D92029"/>
</svg>
