<svg width="78" height="77" viewBox="0 0 78 77" fill="none" xmlns="http://www.w3.org/2000/svg">
<path d="M66 33C66 14.7746 51.2254 0 33 0C14.7746 0 0 14.7746 0 33C0 51.2254 14.7746 66 33 66C51.2254 66 66 51.2254 66 33Z" fill="#EEDBDC"/>
<path fill-rule="evenodd" clip-rule="evenodd" d="M42.4311 17.8783L38.564 21.7566L39.9873 23.1796L41.4107 24.603L42.918 23.1236L44.4257 21.6439L44.5245 24.4819L44.6233 27.3199H46.478H48.3327L48.4315 24.4819L48.5303 21.6439L50.0379 23.1236L51.5453 24.603L52.9687 23.1796L54.392 21.7566L50.5249 17.8783C48.3977 15.7451 46.5768 14 46.478 14C46.3792 14 44.5582 15.7451 42.4311 17.8783ZM24.222 28.6687V34.2327H26.2453H28.2685V32.1356V30.0388L30.2945 32.0436L32.3208 34.0486L33.7432 32.6259L35.1659 31.2036L33.1608 29.1773L31.1561 27.1513H33.2529H35.35V25.128V23.1047H29.786H24.222V28.6687ZM57.606 25.128V27.1513H59.7031H61.7999L59.7952 29.1773L57.7901 31.2036L59.2128 32.6259L60.6352 34.0486L62.6615 32.0436L64.6875 30.0388V32.1356V34.2327H66.7107H68.734V28.6687V23.1047H63.17H57.606V25.128ZM43.842 35.1982C39.6572 36.6742 37.1945 41.2289 38.5404 45.0026C38.8341 45.8261 39.7071 47.3375 40.4803 48.3616C41.2536 49.3861 41.9735 50.7612 42.0804 51.4174L42.2743 52.6108H46.478H50.6817L50.8756 51.4306C50.9825 50.7814 51.7651 49.3078 52.6153 48.1556C54.677 45.3608 55.1639 43.3776 54.4183 40.8128C53.0826 36.2183 48.2389 33.647 43.842 35.1982ZM18.8249 41.4848L14.9561 45.3645L18.9129 49.3213L22.8701 53.2785L24.2952 51.8534L25.7202 50.428L24.2409 48.9207L22.7612 47.413L25.5992 47.3142L28.4371 47.2154V45.3608V43.5061L25.5992 43.4073L22.7612 43.3085L24.2355 41.8065L25.7094 40.3043L24.3916 38.9547C23.6666 38.2122 22.9881 37.6049 22.8836 37.6049C22.779 37.6049 20.9527 39.3506 18.8249 41.4848ZM68.5644 38.9547L67.2466 40.3043L68.735 41.821L70.2231 43.3375H67.2867H64.3503V45.3608V47.384H67.2867H70.2231L68.7296 48.9062L67.2358 50.428L68.6608 51.8534L70.0859 53.2785L74.0431 49.3213L77.9999 45.3645L74.1311 41.4848C72.0033 39.3506 70.1769 37.6049 70.0724 37.6049C69.9679 37.6049 69.2894 38.2122 68.5644 38.9547ZM42.0942 55.8143V57.8376H46.478H50.8618V55.8143V53.7911H46.478H42.0942V55.8143ZM24.222 62.0528V67.6168H29.786H35.35V65.5935V63.5702H33.2529H31.1561L33.1608 61.5443L35.1659 59.5179L33.7432 58.0956L32.3208 56.6729L30.2945 58.678L28.2685 60.6827V58.5859V56.4888H26.2453H24.222V62.0528ZM64.6875 58.5859V60.6827L62.6615 58.678L60.6352 56.6729L59.2128 58.0956L57.7901 59.5179L59.7952 61.5443L61.7999 63.5702H59.7031H57.606V65.5935V67.6168H63.17H68.734V62.0528V56.4888H66.7107H64.6875V58.5859ZM44.4547 66.1695V69.1059L42.9325 67.6124L41.4107 66.1185L39.9853 67.5436L38.5602 68.9687L42.5191 72.9275L46.478 76.8864L50.4369 72.9275L54.3957 68.9687L52.9707 67.5436L51.5453 66.1185L50.0234 67.6124L48.5013 69.1059V66.1695V63.233H46.478H44.4547V66.1695Z" fill="#D92029"/>
</svg>
