<svg width="53" height="49" viewBox="0 0 53 49" fill="none" xmlns="http://www.w3.org/2000/svg">
<path d="M45.2909 23.03C45.2909 10.3109 35.1522 0 22.6455 0C10.1387 0 0 10.3109 0 23.03C0 35.7491 10.1387 46.06 22.6455 46.06C35.1522 46.06 45.2909 35.7491 45.2909 23.03Z" fill="#EBEBEB"/>
<path fill-rule="evenodd" clip-rule="evenodd" d="M27.7378 12.8808C27.6129 12.9582 27.4486 13.1253 27.3725 13.2523C27.2358 13.4803 27.2341 13.6345 27.2341 25.8416C27.2341 38.0488 27.2358 38.203 27.3725 38.4309C27.4486 38.5579 27.6129 38.725 27.7378 38.8025C27.962 38.9415 28.1136 38.9433 40.1169 38.9433C52.1202 38.9433 52.2718 38.9415 52.4959 38.8025C52.6208 38.725 52.7852 38.5579 52.8613 38.4309C52.998 38.203 52.9998 38.0488 52.9998 25.8416C52.9998 13.6345 52.998 13.4803 52.8613 13.2523C52.7852 13.1253 52.6208 12.9582 52.4959 12.8808C52.2718 12.7418 52.1202 12.74 40.1169 12.74C28.1136 12.74 27.962 12.7418 27.7378 12.8808ZM48.3077 17.1703C48.4134 17.2506 48.5644 17.4043 48.6435 17.5119C48.782 17.7007 48.7871 17.7932 48.7871 20.1758C48.7871 22.5584 48.782 22.651 48.6435 22.8398C48.3857 23.1908 48.1538 23.3193 47.7773 23.3193C47.4009 23.3193 47.1692 23.191 46.9111 22.8401C46.7863 22.6703 46.763 22.5112 46.7327 21.6222L46.6978 20.5997L40.8188 26.5793L34.9397 32.5589L35.9566 32.582C36.854 32.6024 36.996 32.6223 37.1655 32.7512C37.5105 33.0136 37.6367 33.2493 37.6367 33.6321C37.6367 34.015 37.5104 34.2508 37.1652 34.5129C36.9796 34.6539 36.8886 34.659 34.5458 34.659C32.203 34.659 32.1119 34.6539 31.9262 34.5129C31.8205 34.4326 31.6693 34.2789 31.5904 34.1714C31.4517 33.9825 31.4468 33.8899 31.4468 31.5074C31.4468 29.1248 31.4517 29.0322 31.5904 28.8435C31.8477 28.4929 32.0912 28.3558 32.4565 28.3558C32.8218 28.3558 33.0653 28.4929 33.3227 28.8434C33.4475 29.0133 33.4709 29.1725 33.5012 30.0612L33.5359 31.0836L39.4203 25.0985L45.3048 19.1135H44.434C43.4453 19.1135 43.1691 19.0546 42.8919 18.7845C42.4991 18.4018 42.467 17.8269 42.8147 17.4065C43.1545 16.9959 43.1986 16.99 45.7701 17.0079C48.017 17.0235 48.1235 17.0304 48.3077 17.1703ZM17.849 31.2945C17.7241 31.372 17.5598 31.5391 17.4837 31.6661C17.3477 31.8929 17.3452 32.0393 17.3452 40.0769C17.3452 48.1145 17.3477 48.2609 17.4837 48.4876C17.5598 48.6146 17.7241 48.7818 17.849 48.8592C18.072 48.9975 18.2159 49 26.1193 49C34.0227 49 34.1666 48.9975 34.3897 48.8592C34.5146 48.7818 34.6789 48.6146 34.755 48.4876C34.8882 48.2653 34.8935 48.1242 34.8937 44.6626L34.8939 41.0684L31.499 41.0672C27.7892 41.0658 27.4822 41.0395 26.799 40.6644C26.3379 40.4112 25.7906 39.8546 25.5416 39.3857C25.1728 38.6909 25.1469 38.3786 25.1456 34.6059L25.1444 31.1533L21.6102 31.1535C18.2064 31.1537 18.0676 31.1591 17.849 31.2945Z" fill="#333333"/>
</svg>
