<svg width="25" height="23" viewBox="0 0 25 23" fill="none" xmlns="http://www.w3.org/2000/svg">
<path opacity="0.5" d="M11.5975 0.891366C11.9597 0.132244 13.0403 0.132245 13.4025 0.891367L16.1545 6.65852C16.3002 6.96403 16.5907 7.17504 16.9263 7.21928L23.2616 8.05439C24.0955 8.16432 24.4294 9.19199 23.8194 9.77108L19.1849 14.1705C18.9394 14.4035 18.8284 14.745 18.8901 15.0778L20.0535 21.3611C20.2067 22.1882 19.3325 22.8233 18.5932 22.4221L12.977 19.3739C12.6795 19.2124 12.3205 19.2124 12.023 19.3739L6.40677 22.4221C5.66751 22.8233 4.79332 22.1882 4.94647 21.3611L6.10994 15.0778C6.17158 14.745 6.06064 14.4035 5.81513 14.1705L1.18064 9.77108C0.570609 9.19199 0.904522 8.16432 1.73843 8.05439L8.07371 7.21928C8.40932 7.17504 8.69976 6.96403 8.84554 6.65852L11.5975 0.891366Z" fill="#FFD540"/>
</svg>
