<svg width="21" height="20" viewBox="0 0 21 20" fill="none" xmlns="http://www.w3.org/2000/svg">
<path d="M9.74264 0.612885C10.0515 -0.0344648 10.973 -0.034466 11.2819 0.612883L13.6287 5.53088C13.753 5.79141 14.0006 5.97136 14.2868 6.00908L19.6893 6.72123C20.4004 6.81497 20.6852 7.69133 20.165 8.18515L16.2129 11.9368C16.0035 12.1355 15.9089 12.4267 15.9615 12.7105L16.9536 18.0687C17.0842 18.7739 16.3387 19.3156 15.7083 18.9734L10.9191 16.3741C10.6653 16.2364 10.3592 16.2364 10.1055 16.3741L5.3162 18.9734C4.68579 19.3156 3.94032 18.774 4.07091 18.0687L5.06308 12.7105C5.11564 12.4267 5.02103 12.1355 4.81168 11.9368L0.859566 8.18515C0.339356 7.69133 0.624101 6.81497 1.33522 6.72123L6.7377 6.00908C7.0239 5.97136 7.27157 5.79141 7.39589 5.53088L9.74264 0.612885Z" fill="#FFD540"/>
</svg>
