<svg width="50" height="50" viewBox="0 0 50 50" fill="none" xmlns="http://www.w3.org/2000/svg">
<path d="M47 23.5C47 10.5213 36.4787 0 23.5 0C10.5213 0 0 10.5213 0 23.5C0 36.4787 10.5213 47 23.5 47C36.4787 47 47 36.4787 47 23.5Z" fill="#FBE9EA"/>
<path fill-rule="evenodd" clip-rule="evenodd" d="M46.3726 10.0206C43.9681 10.2576 41.4235 10.7552 39.5165 11.3613L39.0705 11.5031L43.7542 16.1878C46.3302 18.7644 48.4556 20.8547 48.4774 20.833C48.5508 20.7595 49.0771 18.8522 49.3074 17.8246C49.7448 15.8729 50.0566 13.2429 49.9914 12.0554C49.9518 11.3351 49.7898 10.9419 49.3695 10.5467C48.8813 10.0875 48.6536 10.0165 47.6234 10.0025C47.1074 9.9955 46.5446 10.0037 46.3726 10.0206ZM35.7294 12.7768C32.2555 14.2921 28.3932 16.7602 25.6363 19.2264C24.8252 19.9519 24.9023 19.9318 22.726 19.9875C21.0914 20.0293 20.667 20.0663 19.8291 20.2403C15.5434 21.1299 12.2463 23.6147 10.432 27.3219C9.82999 28.552 9.85499 29.2086 10.5207 29.6533C10.9542 29.943 11.2633 29.9592 11.9725 29.7296C13.7878 29.1416 15.9658 28.9177 17.3444 29.1773L17.552 29.2163L17.1348 30.0524C16.4876 31.3493 16.4139 31.9102 16.7913 32.6676C16.9027 32.8912 18.5947 34.6433 21.9715 38.032C27.3572 43.4363 27.3573 43.4365 28.1366 43.438C28.5912 43.439 29.0527 43.2873 29.9316 42.8483L30.6098 42.5094L30.6655 43.0297C30.8087 44.368 30.5723 46.4385 30.1114 47.8823C29.8755 48.6208 29.8685 48.999 30.0833 49.3814C30.3987 49.9428 31.1071 50.1538 31.7647 49.8823C34.6788 48.6795 37.0441 46.4919 38.4357 43.7125C39.5166 41.5537 39.977 39.2628 39.8664 36.5928C39.8132 35.3057 39.8625 35.1817 40.8933 34.0162C43.468 31.1052 45.7164 27.6058 47.2225 24.1656L47.5951 23.3146L42.1375 17.8548C39.1358 14.852 36.6622 12.3954 36.6406 12.3958C36.619 12.3961 36.209 12.5676 35.7294 12.7768ZM36.1714 19.6407C36.4508 19.7058 36.9785 19.9043 37.3439 20.0817C37.8844 20.3441 38.1407 20.5362 38.7174 21.111C39.8671 22.257 40.3926 23.4966 40.3926 25.0628C40.3926 27.6189 38.8374 29.686 36.325 30.4691C35.4916 30.7289 34.1152 30.7289 33.2818 30.4691C32.0813 30.0949 31.1189 29.4539 30.4246 28.5663C28.7005 26.3622 28.8181 23.3017 30.7044 21.2812C32.128 19.7563 34.1125 19.1608 36.1714 19.6407ZM33.8263 21.9252C32.6447 22.305 31.7789 23.3129 31.5427 24.5835C31.29 25.9425 32.0916 27.4304 33.414 28.057C33.9106 28.2923 33.9971 28.3079 34.8075 28.3079C35.6489 28.3079 35.6869 28.3002 36.267 28.0134C38.1944 27.0606 38.696 24.6462 37.3219 22.9358C36.5543 21.9803 35.0278 21.539 33.8263 21.9252ZM16.2721 36.3816C15.2048 37.6298 13.9697 39.5584 13.0045 41.4839C11.442 44.6013 11.226 46.4898 12.3053 47.5979C13.5469 48.8727 16.2069 48.3416 20.0901 46.0437C21.532 45.1905 23.3706 43.8928 23.7821 43.438C23.9292 43.2755 23.9189 43.2643 20.299 39.6426C18.3022 37.6448 16.6507 36.0102 16.6291 36.0102C16.6074 36.0103 16.4468 36.1774 16.2721 36.3816Z" fill="#D92029"/>
</svg>
