<svg width="66" height="67" viewBox="0 0 66 67" fill="none" xmlns="http://www.w3.org/2000/svg">
<path d="M66 33C66 14.7746 51.2254 0 33 0C14.7746 0 0 14.7746 0 33C0 51.2254 14.7746 66 33 66C51.2254 66 66 51.2254 66 33Z" fill="#E4E4E4"/>
<path d="M52.9286 49.8036H52.4486C51.2068 49.8036 49.9977 50.0998 48.8233 50.498C45.1265 51.7521 41.1194 51.7521 37.4226 50.498C36.2502 50.0998 35.0442 49.8056 33.8055 49.8056H33.3214C29.855 49.8056 26.5306 51.1825 24.0793 53.6335C21.6279 56.0844 20.2505 59.4086 20.25 62.875C20.25 63.7417 20.5943 64.5729 21.2071 65.1858C21.82 65.7986 22.6512 66.1429 23.5179 66.1429H62.7321C63.5988 66.1429 64.43 65.7986 65.0429 65.1858C65.6557 64.5729 66 63.7417 66 62.875C66 59.4083 64.6228 56.0835 62.1715 53.6321C59.7201 51.1808 56.3953 49.8036 52.9286 49.8036ZM23.5179 62.875C23.5206 60.2758 24.5543 57.7838 26.3922 55.9458C28.2302 54.1079 30.7222 53.0742 33.3214 53.0715H33.8055C34.5122 53.0715 35.3291 53.2369 36.3748 53.5913C40.7512 55.0754 45.4947 55.0754 49.8711 53.5913C50.9239 53.2349 51.743 53.0694 52.4486 53.0694H52.9286C55.5278 53.0721 58.0198 54.1059 59.8578 55.9438C61.6957 57.7817 62.7294 60.2738 62.7321 62.873L23.5179 62.875ZM25.1518 36.7322C25.5851 36.7322 26.0007 36.56 26.3071 36.2536C26.6136 35.9472 26.7857 35.5316 26.7857 35.0982V33.4643C26.7857 24.4552 34.1159 17.125 43.125 17.125C52.1341 17.125 59.4643 24.4552 59.4643 33.4643V35.0982C59.4619 37.2642 58.6003 39.3408 57.0688 40.8724C55.5372 42.404 53.4606 43.2655 51.2946 43.2679H48.0268C48.0268 42.4012 47.6825 41.57 47.0697 40.9572C46.4568 40.3443 45.6256 40 44.7589 40H41.4911C40.6244 40 39.7932 40.3443 39.1803 40.9572C38.5675 41.57 38.2232 42.4012 38.2232 43.2679C38.2232 44.1346 38.5675 44.9658 39.1803 45.5786C39.7932 46.1915 40.6244 46.5357 41.4911 46.5357H51.2946C54.3269 46.532 57.2339 45.3257 59.378 43.1816C61.5221 41.0375 62.7284 38.1305 62.7321 35.0982V33.4643C62.7321 22.6518 53.9375 13.8572 43.125 13.8572C32.3125 13.8572 23.5179 22.6518 23.5179 33.4643V35.0982C23.5179 35.5316 23.69 35.9472 23.9964 36.2536C24.3028 36.56 24.7184 36.7322 25.1518 36.7322ZM43.125 23.6607C45.0183 23.6523 46.8732 24.1947 48.4636 25.2219C50.0541 26.2492 51.3114 27.7168 52.0824 29.446C52.8533 31.1753 53.1047 33.0914 52.8058 34.961C52.5069 36.8306 51.6707 38.5728 50.399 39.9755C50.399 39.9847 50.4123 39.9908 50.4174 40H51.2946C52.1237 39.9982 52.9388 39.7856 53.6631 39.3823C54.3875 38.9789 54.9974 38.398 55.4356 37.6942C55.8901 36.3605 56.1964 34.9532 56.1964 33.4643C56.1964 29.9976 54.8193 26.6728 52.3679 24.2214C49.9165 21.7701 46.5918 20.3929 43.125 20.3929C39.6582 20.3929 36.3335 21.7701 33.8821 24.2214C31.4307 26.6728 30.0536 29.9976 30.0536 33.4643C30.0536 37.592 32.0041 41.2255 34.9911 43.6222C34.985 43.5028 34.9554 43.3894 34.9554 43.2679C34.9627 42.1168 35.2776 40.9886 35.8673 40C34.5891 38.5991 33.7467 36.8561 33.443 34.9841C33.1394 33.1121 33.3877 31.1922 34.1575 29.459C34.9274 27.7259 36.1855 26.2545 37.778 25.2248C39.3705 24.1951 41.2286 23.6516 43.125 23.6607Z" fill="#232D3F"/>
</svg>
