<svg width="50" height="50" viewBox="0 0 50 50" fill="none" xmlns="http://www.w3.org/2000/svg">
<path d="M47 23.5C47 10.5213 36.4787 0 23.5 0C10.5213 0 0 10.5213 0 23.5C0 36.4787 10.5213 47 23.5 47C36.4787 47 47 36.4787 47 23.5Z" fill="#EBEBEB"/>
<path fill-rule="evenodd" clip-rule="evenodd" d="M33.1597 11.0197C30.1719 11.5034 27.6725 13.6434 26.7631 16.4965C26.6561 16.832 26.5264 17.3122 26.4748 17.5638C26.3433 18.2038 26.3628 19.8783 26.5095 20.5474C27.1782 23.5966 29.3228 25.902 32.2545 26.7229C33.1737 26.9804 34.6784 27.0471 35.6604 26.8739C37.4554 26.5574 39.1391 25.5892 40.309 24.2006C42.263 21.8816 42.7673 18.78 41.6494 15.9587C40.8896 14.0413 39.2721 12.3857 37.3725 11.581C36.3816 11.1612 35.7466 11.0336 34.5176 11.0073C33.8952 10.9939 33.2842 10.9995 33.1597 11.0197ZM35.3851 13.333V13.7904H36.4035H37.4218V14.9338V16.0773H35.1351H32.8485L32.6458 16.2911C32.3588 16.5937 32.366 17.0021 32.6636 17.3028L32.8841 17.5257H34.214C35.8143 17.5257 36.3813 17.6318 37.0222 18.051C37.7507 18.5276 38.2255 19.1821 38.4363 20.0001C38.9197 21.8759 37.7633 23.7066 35.8565 24.0841L35.3851 24.1775V24.6631V25.1487H34.2912H33.1974V24.6532V24.1577H32.179H31.1606V23.0174V21.8771L33.4566 21.8549L35.7526 21.8327L35.9842 21.6083C36.451 21.1562 36.435 20.481 35.9471 20.0482L35.6815 19.8126L34.4583 19.811C33.7856 19.8102 33.0232 19.7786 32.7643 19.7407C31.7682 19.5951 30.9675 19.0196 30.5293 18.1346C29.9347 16.9336 30.1409 15.6527 31.0819 14.7018C31.5631 14.2155 32.0552 13.9579 32.7259 13.8414L33.1974 13.7594V13.3175V12.8756H34.2912H35.3851V13.333ZM47.379 25.8297C46.9368 25.9657 46.5785 26.272 43.458 29.1816L40.1799 32.2381L39.1215 32.2342L38.0631 32.2302L38.4567 32.0773C38.9396 31.8897 39.4429 31.409 39.6861 30.9029C39.9557 30.3422 39.9484 29.5335 39.6686 28.9579C39.5559 28.726 39.3624 28.4382 39.2386 28.3184L39.0135 28.1003L38.3874 28.3704C36.9283 28.9999 35.8478 29.2205 34.2535 29.2144C33.3503 29.2109 32.904 29.1716 32.2922 29.0416C31.3201 28.8351 30.0922 28.3761 29.3879 27.9558L28.8598 27.6408L27.4266 27.6574L25.9933 27.6741L24.0129 29.6699L22.0326 31.6656L25.8224 35.4958L29.6122 39.3262L30.1807 38.7552L30.7491 38.1841H36.0809H41.4127L45.5088 33.6444C47.7616 31.1475 49.6819 28.9597 49.7761 28.7825C50.4828 27.4538 49.4224 25.7364 47.9129 25.7651C47.7232 25.7687 47.4829 25.7978 47.379 25.8297ZM15.4131 35.1542L12 38.6039L17.639 44.3019L23.2781 50L26.7099 46.5314L30.1417 43.0627L24.5222 37.3836C21.4314 34.2602 18.8854 31.7045 18.8644 31.7045C18.8434 31.7045 17.2903 33.2569 15.4131 35.1542ZM25.4275 42.0338L26.2169 42.8342L25.4274 43.6347L24.638 44.4352L23.8258 43.6169L23.0135 42.7987L23.7854 42.016C24.21 41.5855 24.5754 41.2333 24.5977 41.2333C24.6199 41.2333 24.9934 41.5935 25.4275 42.0338Z" fill="#333333"/>
</svg>
